<svg width="1448" height="1411" viewBox="0 0 1448 1411" fill="none" xmlns="http://www.w3.org/2000/svg">
<path d="M715.202 1410.46C1103.78 1410.46 1418.78 1239.15 1418.78 1027.83C1418.78 816.518 1103.78 645.212 715.202 645.212C326.625 645.212 11.6215 816.518 11.6215 1027.83C11.6215 1239.15 326.625 1410.46 715.202 1410.46Z" fill="#F5F5F5"/>
<path d="M715.202 1007.8C773.749 1007.8 821.211 980.393 821.211 946.58C821.211 912.766 773.749 885.355 715.202 885.355C656.655 885.355 609.192 912.766 609.192 946.58C609.192 980.393 656.655 1007.8 715.202 1007.8Z" fill="#E0E0E0"/>
<path d="M1110.55 1171.42C1203.1 1171.42 1278.13 1128.1 1278.13 1074.67C1278.13 1021.23 1203.1 977.917 1110.55 977.917C1018 977.917 942.968 1021.23 942.968 1074.67C942.968 1128.1 1018 1171.42 1110.55 1171.42Z" fill="#E0E0E0"/>
<path d="M288.204 1181.87C380.756 1181.87 455.784 1138.56 455.784 1085.12C455.784 1031.69 380.756 988.373 288.204 988.373C195.651 988.373 120.623 1031.69 120.623 1085.12C120.623 1138.56 195.651 1181.87 288.204 1181.87Z" fill="#E0E0E0"/>
<path d="M1360.83 1005.91L1329.18 992.971C1325.2 965.611 1322.91 938.033 1322.32 910.393C1322.32 858.679 1354.53 795.439 1395.41 806.021C1436.29 816.603 1383.89 874.458 1375.38 919.148C1366.88 963.839 1360.83 1005.91 1360.83 1005.91Z" fill="#BA68C8"/>
<path opacity="0.3" d="M1360.83 1005.91L1329.18 992.971C1325.2 965.611 1322.91 938.033 1322.32 910.393C1322.32 858.679 1354.53 795.439 1395.41 806.021C1436.29 816.603 1383.89 874.458 1375.38 919.148C1366.88 963.839 1360.83 1005.91 1360.83 1005.91Z" fill="black"/>
<path d="M1345.5 1001.91C1345.84 1001.87 1346.16 1001.69 1346.37 1001.41C1346.58 1001.13 1346.67 1000.78 1346.63 1000.43C1331.54 887.056 1382.53 824.067 1383.04 823.532C1383.26 823.26 1383.37 822.91 1383.34 822.559C1383.31 822.208 1383.13 821.884 1382.86 821.658C1382.59 821.432 1382.24 821.324 1381.89 821.356C1381.54 821.389 1381.21 821.56 1380.99 821.831C1380.49 822.461 1328.74 886.205 1343.98 1000.78C1344.01 1000.96 1344.06 1001.12 1344.15 1001.28C1344.24 1001.43 1344.36 1001.56 1344.5 1001.67C1344.64 1001.77 1344.8 1001.85 1344.97 1001.89C1345.14 1001.93 1345.32 1001.94 1345.5 1001.91V1001.91Z" fill="white"/>
<path d="M1377.08 1013.47L1360.55 1005.98C1355.6 980.504 1356.35 954.249 1362.75 929.1C1373.37 888.347 1408.7 863.215 1426.5 867.372C1448.26 872.442 1450.37 892.567 1444.01 906.582C1436.42 923.18 1384.08 968.122 1377.08 1013.47Z" fill="#BA68C8"/>
<path opacity="0.1" d="M1377.08 1013.47L1360.55 1005.98C1355.6 980.504 1356.35 954.249 1362.75 929.1C1373.37 888.347 1408.7 863.215 1426.5 867.372C1448.26 872.442 1450.37 892.567 1444.01 906.582C1436.42 923.18 1384.08 968.122 1377.08 1013.47Z" fill="black"/>
<path d="M1368.49 1010.86C1368.84 1010.82 1369.16 1010.64 1369.39 1010.36C1369.61 1010.09 1369.72 1009.73 1369.68 1009.38C1362.25 937.446 1425.02 882.143 1425.68 881.607C1425.92 881.351 1426.05 881.013 1426.05 880.662C1426.05 880.312 1425.92 879.974 1425.68 879.718C1425.56 879.592 1425.41 879.492 1425.25 879.424C1425.09 879.356 1424.91 879.321 1424.73 879.321C1424.56 879.321 1424.38 879.356 1424.22 879.424C1424.06 879.492 1423.91 879.592 1423.79 879.718C1423.13 880.284 1359.35 936.407 1366.88 1009.79C1366.96 1010.14 1367.17 1010.45 1367.47 1010.65C1367.77 1010.85 1368.13 1010.92 1368.49 1010.86V1010.86Z" fill="white"/>
<path d="M104.214 976.94L125.945 964.532C125.945 964.532 136.339 907.181 128.559 857.861C117.599 788.573 70.3897 764.606 53.2568 771.504C36.124 778.401 32.0927 798.935 63.0515 838.996C81.3181 862.616 104.813 912.598 104.214 976.94Z" fill="#BA68C8"/>
<g opacity="0.15">
<path opacity="0.15" d="M104.214 976.94L125.945 964.532C125.945 964.532 136.339 907.181 128.559 857.861C117.599 788.573 70.3897 764.606 53.2568 771.504C36.124 778.401 32.0927 798.935 63.0515 838.996C81.3181 862.616 104.813 912.598 104.214 976.94Z" fill="black"/>
</g>
<path d="M112.088 949.414H111.867C111.668 949.387 111.476 949.321 111.303 949.219C111.129 949.116 110.978 948.981 110.858 948.82C110.737 948.658 110.651 948.474 110.602 948.279C110.554 948.084 110.545 947.881 110.576 947.682C119.521 882.772 93.4434 811.658 64.0908 782.999C63.9086 782.866 63.757 782.695 63.6463 782.499C63.5357 782.302 63.4685 782.085 63.4494 781.86C63.4303 781.635 63.4597 781.409 63.5355 781.197C63.6114 780.984 63.732 780.791 63.8892 780.629C64.0463 780.467 64.2364 780.341 64.4465 780.259C64.6566 780.177 64.8819 780.141 65.1071 780.154C65.3322 780.167 65.552 780.228 65.7516 780.333C65.9512 780.438 66.1259 780.584 66.2639 780.763C96.1204 809.8 122.733 882.237 113.663 948.06C113.609 948.438 113.42 948.784 113.13 949.033C112.841 949.283 112.47 949.418 112.088 949.414Z" fill="white"/>
<path d="M43.9975 1011.74C40.5647 1013.69 33.5099 1009.41 30.8014 1007.58C26.1556 1004.38 22.4047 1000.05 19.9045 994.986C17.1123 989.275 16.1657 982.836 17.196 976.562C17.7412 973.247 18.52 969.974 19.5265 966.768L22.2665 957.319C23.346 954.292 23.817 951.081 23.6523 947.871C22.8334 941.352 17.0385 936.817 11.8104 932.88C5.98402 928.534 -0.0313711 922.802 0.000123135 914.96C0.406486 908.884 2.8345 903.119 6.89735 898.583C10.6137 893.827 15.0544 889.638 18.4557 884.631C21.1218 881.116 22.4904 876.788 22.3295 872.379C21.9687 869.697 21.0688 867.115 19.684 864.789C16.4979 859.946 13.717 854.847 11.3695 849.546C9.44839 844.066 9.73183 837.263 14.015 833.327C15.9211 831.902 18.0927 830.873 20.4021 830.3C22.7115 829.727 25.1121 829.621 27.4631 829.988C31.935 830.516 36.236 832.021 40.0607 834.397C52.501 841.295 59.5871 856.034 72.7832 861.356C78.0078 862.984 83.3305 864.278 88.7193 865.23C91.424 865.732 93.9933 866.795 96.261 868.352C98.5287 869.909 100.444 871.925 101.884 874.269C106.734 883.938 97.7581 895.843 101.159 906.11C104.309 915.18 113.001 918.707 117.946 926.864C119.973 930.471 120.79 934.633 120.276 938.738C119.837 945.683 118.14 952.491 115.269 958.831C112.038 965.133 108.343 971.186 104.214 976.94C104.025 977.161 44.5329 1011.36 43.9975 1011.74Z" fill="#BA68C8"/>
<path d="M79.2396 992.971C79.0327 992.963 78.8295 992.914 78.6415 992.827C78.4536 992.74 78.2845 992.617 78.1441 992.465C78.0037 992.313 77.8947 992.135 77.8232 991.941C77.7518 991.746 77.7194 991.54 77.7278 991.333C80.2789 929.919 51.3357 862.207 30.2976 842.365C30.011 842.076 29.8502 841.686 29.8502 841.279C29.8502 840.872 30.011 840.481 30.2976 840.192C30.5919 839.904 30.9877 839.742 31.3999 839.742C31.8121 839.742 32.2078 839.904 32.5022 840.192C53.8237 860.191 83.3968 929.163 80.7828 991.49C80.7665 991.889 80.5968 992.265 80.3091 992.541C80.0214 992.817 79.6382 992.971 79.2396 992.971Z" fill="white"/>
<path d="M70.0432 920.377H69.5708C55.0191 916.375 40.0776 913.957 25.0065 913.164C24.5888 913.164 24.1883 912.999 23.893 912.703C23.5977 912.408 23.4318 912.007 23.4318 911.59C23.4318 911.172 23.5977 910.772 23.893 910.476C24.1883 910.181 24.5888 910.015 25.0065 910.015C40.3448 910.812 55.5511 913.273 70.3581 917.353C70.5526 917.411 70.7338 917.506 70.8913 917.634C71.0488 917.762 71.1796 917.92 71.2761 918.098C71.3727 918.277 71.4331 918.472 71.4539 918.674C71.4747 918.876 71.4555 919.08 71.3974 919.274C71.3056 919.571 71.1281 919.834 70.8871 920.03C70.6461 920.226 70.3525 920.347 70.0432 920.377Z" fill="white"/>
<path d="M1193.38 1054.7L1164.03 1051.33L1156.44 992.183L1192.31 1002.83L1193.38 1054.7Z" fill="#B16668"/>
<path d="M1129.07 1102.95C1128.64 1104.11 1128.47 1105.36 1128.56 1106.59C1128.64 1107.83 1128.99 1109.03 1129.57 1110.13C1132.72 1113.78 1140.85 1118.07 1151.93 1118.85C1162.55 1119.61 1171.99 1118.19 1178.2 1114.25C1180.9 1112.86 1183.21 1110.82 1184.92 1108.31C1186.64 1105.81 1187.7 1102.91 1188.02 1099.89C1188.62 1093.88 1188.02 1088.05 1190.83 1083.42C1193.63 1078.79 1197.69 1074.29 1198.61 1071.96C1199.7 1067.94 1199.7 1063.7 1198.61 1059.68L1129.07 1102.95Z" fill="#263238"/>
<path d="M1158.07 1050.29C1157.98 1052.57 1157.57 1054.83 1156.85 1057C1155.22 1061.66 1153.04 1066.11 1150.36 1070.26C1149.04 1072.46 1147.56 1074.56 1145.95 1076.56C1142.8 1080.37 1138.77 1083.52 1135.37 1087.17C1131.76 1090.61 1129.44 1095.2 1128.82 1100.15C1128.37 1108.46 1141.6 1111.29 1148.56 1112.52C1156.07 1113.83 1163.77 1113.45 1171.11 1111.39C1174.96 1110.39 1178.45 1108.29 1181.14 1105.36C1183.83 1102.43 1185.62 1098.78 1186.29 1094.85C1186.7 1092.52 1186.54 1090.16 1186.83 1087.86C1187.74 1082.55 1189.96 1077.55 1193.28 1073.31C1195.21 1070.86 1196.87 1068.21 1198.23 1065.41C1200.4 1060.27 1198.67 1054.48 1197.28 1049.38C1196.09 1044.94 1194.64 1039.93 1193.06 1040.27C1193.06 1042.57 1193.06 1042.89 1191.52 1044.43C1189.98 1045.98 1189.38 1049.38 1187.17 1051.11C1187.88 1049.19 1188.39 1047.21 1188.72 1045.19C1188.85 1044.38 1188.69 1043.55 1188.24 1042.86C1187.51 1042.2 1186.64 1041.73 1185.69 1041.47C1182.42 1040.38 1179.04 1039.61 1175.62 1039.17C1170.94 1038.64 1166.22 1038.64 1161.54 1039.17C1160.56 1039.35 1159.68 1039.86 1159.05 1040.62C1158.48 1041.46 1158.18 1042.44 1158.17 1043.46C1158.01 1044.65 1158.14 1048.09 1158.07 1050.29Z" fill="#455A64"/>
<path d="M1149.22 1072.02C1152.37 1069.69 1163.49 1069.66 1167.27 1070.07C1171.12 1070.4 1174.83 1071.7 1178.04 1073.85C1178.51 1074.18 1179.09 1074.34 1179.66 1074.3C1180.24 1074.25 1180.78 1074 1181.19 1073.6V1073.6C1181.43 1073.36 1181.61 1073.07 1181.73 1072.76C1181.85 1072.45 1181.9 1072.11 1181.87 1071.77C1181.85 1071.44 1181.75 1071.11 1181.59 1070.82C1181.43 1070.52 1181.21 1070.27 1180.94 1070.07C1177.41 1067.46 1173.22 1065.9 1168.84 1065.56C1163.39 1065.16 1157.9 1065.48 1152.53 1066.51C1152.53 1066.51 1148.31 1069.25 1149.22 1072.02Z" fill="#F5F5F5"/>
<path d="M1142.11 1080.65C1146.01 1078.35 1157.85 1078.67 1161.66 1079.08C1165.44 1079.46 1169.05 1080.84 1172.12 1083.08C1172.59 1083.4 1173.17 1083.56 1173.74 1083.51C1174.31 1083.47 1174.85 1083.22 1175.27 1082.82V1082.82C1175.51 1082.59 1175.69 1082.3 1175.81 1081.99C1175.93 1081.67 1175.98 1081.34 1175.95 1081C1175.93 1080.67 1175.83 1080.34 1175.67 1080.05C1175.51 1079.75 1175.29 1079.5 1175.02 1079.3C1169.85 1076.62 1164.21 1074.97 1158.42 1074.45C1148.97 1073.78 1146.67 1075.67 1146.67 1075.67C1145.59 1076.11 1144.62 1076.78 1143.83 1077.65C1143.04 1078.51 1142.45 1079.53 1142.11 1080.65V1080.65Z" fill="#F5F5F5"/>
<path d="M1172.56 1056.65C1167.23 1056.04 1161.84 1056.37 1156.62 1057.63C1154.99 1058.54 1153.88 1061.16 1154.96 1061.82C1159.71 1060.53 1164.65 1060.04 1169.57 1060.37C1173.06 1060.72 1176.47 1061.66 1179.65 1063.14C1180.47 1063.52 1181.41 1063.99 1182.23 1064.46C1182.49 1064.63 1182.79 1064.74 1183.1 1064.78C1183.41 1064.82 1183.72 1064.8 1184.02 1064.71C1184.32 1064.62 1184.6 1064.47 1184.83 1064.26C1185.06 1064.06 1185.25 1063.8 1185.38 1063.52V1063.52C1185.6 1063.05 1185.65 1062.52 1185.5 1062.03C1185.36 1061.53 1185.03 1061.11 1184.59 1060.84C1180.93 1058.6 1176.82 1057.17 1172.56 1056.65Z" fill="#F5F5F5"/>
<path d="M1083.94 1027.8L1056.03 1020.02V963.618L1090.64 965.13L1083.94 1027.8Z" fill="#B16668"/>
<path d="M997.075 1058.01C996.288 1060.44 996.434 1063.08 997.484 1065.41C998.524 1067.55 1009.83 1073.94 1025.07 1072.9C1036.36 1072.09 1047.24 1068.29 1056.57 1061.88C1062.36 1058.04 1068.41 1057.31 1075.97 1056.9C1083.53 1056.49 1093.42 1052.68 1095.08 1049.16C1095.94 1046 1095.85 1042.66 1094.83 1039.55L997.075 1058.01Z" fill="#263238"/>
<path d="M1058.49 1010.45L1057.29 1010.2C1056.63 1010.04 1055.94 1010.04 1055.28 1010.2C1054.54 1010.44 1053.89 1010.87 1053.39 1011.46C1051.9 1013.37 1050.6 1015.43 1049.51 1017.6C1046.36 1022.8 1039.59 1027.05 1032.29 1031.05C1027.31 1033.72 1022.43 1035.8 1017.29 1038.1C1012.16 1040.4 1005.07 1041.91 1000.98 1044.68C994.996 1048.72 994.209 1058.83 1000.98 1062.82C1006.84 1066.29 1022.33 1070.04 1038.55 1065.44C1047.37 1062.92 1057.2 1053.5 1068.79 1052.59C1076.16 1051.99 1090.11 1049.94 1094.86 1044.34C1096.63 1041.85 1094.27 1033.98 1092.34 1027.17C1090.23 1019.74 1088.25 1008.28 1085.79 1008.81C1085.82 1009.34 1085.71 1009.87 1085.48 1010.35C1085.26 1010.84 1084.92 1011.26 1084.5 1011.58C1083.59 1012.53 1082.36 1013.13 1081.35 1013.98C1079.63 1015.67 1078.25 1017.67 1077.26 1019.87C1076.86 1020.85 1076.12 1021.65 1075.18 1022.13C1073.92 1022.58 1073.01 1021.82 1072.03 1021.32C1070.65 1020.68 1069.08 1020.57 1067.62 1021C1067.77 1019.52 1068.04 1018.06 1068.41 1016.62C1068.55 1016.17 1068.55 1015.69 1068.41 1015.24C1068.23 1014.78 1067.9 1014.4 1067.46 1014.17C1064.77 1012.31 1061.71 1011.05 1058.49 1010.45V1010.45Z" fill="#455A64"/>
<path d="M1039.28 1026.92C1039.8 1025.9 1040.58 1025.03 1041.53 1024.39C1042.48 1023.76 1043.58 1023.37 1044.73 1023.27C1048.06 1022.64 1053.99 1025.13 1057.67 1028.15C1058.02 1028.43 1058.3 1028.79 1058.48 1029.21C1058.65 1029.62 1058.73 1030.07 1058.69 1030.52C1058.65 1030.97 1058.51 1031.4 1058.26 1031.78C1058.02 1032.15 1057.68 1032.47 1057.29 1032.68V1032.68C1056.8 1032.96 1056.23 1033.08 1055.66 1033.02C1055.1 1032.96 1054.56 1032.72 1054.14 1032.34C1050.08 1028.67 1044.75 1026.73 1039.28 1026.92V1026.92Z" fill="#F5F5F5"/>
<path d="M1028.85 1032.75C1029.58 1031.72 1030.55 1030.87 1031.67 1030.29C1032.8 1029.71 1034.04 1029.41 1035.31 1029.41C1040.49 1029.64 1045.46 1031.5 1049.51 1034.73C1049.84 1035.01 1050.1 1035.36 1050.27 1035.76C1050.44 1036.16 1050.5 1036.59 1050.47 1037.02C1050.43 1037.45 1050.29 1037.86 1050.06 1038.23C1049.83 1038.59 1049.51 1038.89 1049.13 1039.11V1039.11C1048.64 1039.4 1048.07 1039.53 1047.5 1039.47C1046.93 1039.41 1046.4 1039.16 1045.99 1038.76C1043.76 1036.55 1041.06 1034.86 1038.1 1033.82C1035.14 1032.78 1031.98 1032.41 1028.85 1032.75V1032.75Z" fill="#F5F5F5"/>
<path d="M1017.55 1037.98C1018.38 1037.03 1019.4 1036.27 1020.56 1035.75C1021.71 1035.23 1022.96 1034.97 1024.22 1034.98C1029.21 1035.29 1033.97 1037.16 1037.83 1040.34C1038.16 1040.62 1038.42 1040.97 1038.59 1041.37C1038.75 1041.77 1038.82 1042.21 1038.78 1042.64C1038.74 1043.07 1038.6 1043.49 1038.37 1043.86C1038.14 1044.22 1037.82 1044.53 1037.45 1044.75C1036.96 1045.04 1036.39 1045.17 1035.82 1045.11C1035.25 1045.04 1034.72 1044.8 1034.3 1044.4C1032.2 1042.11 1029.59 1040.33 1026.68 1039.22C1023.77 1038.1 1020.65 1037.68 1017.55 1037.98V1037.98Z" fill="#F5F5F5"/>
<path d="M1186.95 659.793C1188.87 717.963 1189 843.94 1189 843.94C1189.6 851.184 1190.23 864.033 1190.76 890.111C1191.55 927.904 1193.38 1021.22 1193.38 1021.22C1193.38 1021.22 1175.33 1029.69 1158.73 1022.8C1158.73 1022.8 1135.68 891.591 1130.96 854.176C1126.83 821.516 1118.93 744.922 1118.93 744.922L1108.03 842.145C1108.03 842.145 1108.03 867.34 1106.55 889.575C1105.32 906.897 1088.5 996.12 1088.5 996.12C1077.52 999.038 1065.92 998.655 1055.15 995.018C1055.15 995.018 1053.64 858.049 1053.32 842.145C1052.98 824.067 1057.64 628.614 1057.64 628.614L1186.95 659.793Z" fill="#455A64"/>
<path d="M1118.99 744.922L1114.83 711.948C1101.41 708.516 1088.71 702.691 1077.35 694.752C1077.35 694.752 1085.35 705.46 1108.85 716.798L1114.14 746.718L1108.16 842.145L1118.99 744.922Z" fill="#37474F"/>
<path d="M1056.16 496.559C1047.65 507.708 1003.91 567.736 1003.91 567.736L963.502 536.431C954.054 529.03 951.251 519.329 945.33 512.621C939.409 505.913 932.921 504.307 926.276 498.701C919.631 493.095 917.08 488.843 914.812 493.63C912.545 498.417 919.883 506.763 921.111 508.779C922.339 510.794 929.929 515.613 919.914 515.078C909.899 514.542 890.625 503.11 885.963 501C881.302 498.89 881.176 504.653 883.381 508.432C885.586 512.212 884.483 522.731 887.066 529.502C889.648 536.273 894.184 540.43 903.411 544.997C912.009 549.28 932.921 551.957 939.724 556.241C954.652 571.547 982.808 600.112 989.926 605.403C999.721 612.678 1009.2 619.386 1024.19 604.962C1039.18 590.538 1082.61 533.943 1082.61 533.943L1091.59 480.119C1076.85 479.584 1066.43 483.111 1056.16 496.559Z" fill="#B16668"/>
<path d="M1003.91 567.736C1009.45 571.83 1015.22 581.027 1015.75 585.152C1015.69 581.243 1014.81 577.39 1013.19 573.834C1011.56 570.279 1009.22 567.098 1006.3 564.492L1003.91 567.736Z" fill="#9A4A4D"/>
<path d="M1095.05 478.796C1095.05 478.796 1074.27 478.544 1065.13 484.938C1056 491.331 1049.23 500.685 1034.4 522.258C1021.39 541.155 1015.09 550.225 1015.09 550.225C1023.6 562.82 1036 572.287 1050.39 577.184L1089.2 529.124L1095.05 478.796Z" fill="#37474F"/>
<path d="M1135.27 477.789C1147.05 478.922 1163.62 479.048 1175.27 480.245C1183.36 483.583 1198.98 497.189 1197.82 506.889C1193.47 543.139 1184.69 602.569 1184.69 602.569L1187.58 665.557C1171.36 681.745 1095.46 688.075 1056.35 662.187C1056.35 662.187 1057.61 549.06 1060.32 529.911C1065.13 495.614 1069.35 482.891 1087.05 479.867C1104.75 476.844 1135.27 477.789 1135.27 477.789Z" fill="#BA68C8"/>
<path d="M1201.98 497.472C1210.48 508.621 1254.26 568.649 1254.26 568.649L1294.7 537.344C1304.14 529.911 1306.95 520.211 1312.87 513.534C1318.79 506.858 1325.28 505.22 1331.92 499.614C1338.57 494.008 1341.12 489.756 1343.39 494.512C1345.65 499.268 1338.31 507.677 1337.09 509.692C1335.86 511.708 1328.27 516.526 1338.28 515.991C1348.3 515.456 1367.54 503.992 1372.23 501.882C1376.93 499.771 1376.99 505.535 1374.82 509.314C1372.64 513.094 1373.68 523.644 1371.13 530.415C1368.58 537.187 1364.01 541.312 1354.79 545.91C1346.19 550.194 1325.28 552.871 1318.47 557.154C1303.55 572.429 1275.39 601.025 1268.27 606.285C1258.48 613.56 1249 620.268 1234.01 605.875C1219.01 591.483 1184.75 546.666 1184.75 546.666L1166.61 481.032C1181.32 480.497 1191.74 484.024 1201.98 497.472Z" fill="#B16668"/>
<path d="M1254.26 568.649C1248.71 572.744 1242.95 581.94 1242.41 586.066C1242.48 582.151 1243.35 578.292 1244.97 574.73C1246.6 571.169 1248.94 567.983 1251.86 565.374L1254.26 568.649Z" fill="#9A4A4D"/>
<path d="M1164.53 479.458C1164.53 479.458 1183.21 478.292 1193.03 485.757C1201.88 492.559 1208.78 501.504 1223.77 523.077C1236.78 541.974 1243.08 551.044 1243.08 551.044C1234.54 563.635 1222.14 573.099 1207.74 578.003L1181.32 545.438C1167.55 527.99 1153.92 501.441 1164.53 479.458Z" fill="#37474F"/>
<path d="M1138.2 392.502C1138.26 399.728 1136.18 406.809 1132.22 412.851C1128.26 418.893 1122.59 423.624 1115.94 426.447C1109.29 429.269 1101.95 430.056 1094.85 428.707C1087.75 427.359 1081.21 423.935 1076.06 418.871C1070.91 413.806 1067.37 407.326 1065.9 400.252C1064.43 393.178 1065.09 385.826 1067.8 379.127C1070.5 372.428 1075.14 366.682 1081.11 362.616C1087.08 358.55 1094.13 356.347 1101.35 356.284C1106.15 356.242 1110.91 357.146 1115.36 358.944C1119.81 360.742 1123.86 363.398 1127.28 366.761C1130.7 370.124 1133.43 374.129 1135.3 378.545C1137.17 382.962 1138.16 387.705 1138.2 392.502V392.502Z" fill="#263238"/>
<path d="M1165.07 418.265C1165.07 418.265 1159.36 446.137 1157.03 450.704C1155.48 453.54 1152.9 455.671 1149.82 456.656L1150.04 437.067L1165.07 418.265Z" fill="#263238"/>
<path d="M1157.29 378.487C1159.35 378.222 1161.45 378.434 1163.42 379.105C1165.39 379.776 1167.18 380.89 1168.66 382.361C1173.57 387.306 1170.99 402.927 1165.07 418.264L1153.92 419.65L1157.29 378.487Z" fill="#263238"/>
<path d="M1150.58 419.682C1152.81 421.005 1155.96 416.532 1158.7 413.761C1161.44 410.989 1170.39 406.832 1174.99 416.249C1179.58 425.666 1171.21 438.673 1164.15 440.94C1151.96 444.909 1150.04 437.067 1150.04 437.067L1149.54 482.481C1134.55 502.102 1092.38 500.811 1109.76 480.34V466.923C1104.33 467.834 1098.82 468.161 1093.32 467.899C1084.31 466.608 1078.61 459.553 1075.78 449.853C1071.28 434.295 1069.48 421.697 1072.94 390.928C1076.72 357.229 1115.87 356.536 1137.13 369.669C1158.39 382.802 1150.58 419.682 1150.58 419.682Z" fill="#B16668"/>
<path d="M1150.61 423.43C1151.71 423.43 1155.93 416.312 1158.7 413.761C1162.51 410.202 1157.29 378.487 1157.29 378.487C1158.59 375.673 1159.02 372.53 1158.52 369.468C1158.01 366.406 1156.6 363.567 1154.45 361.323C1149.13 355.56 1141.7 348.536 1117.76 351.56C1100.66 353.733 1082.11 359.244 1067.02 352.001C1065.68 356.912 1065.83 362.112 1067.46 366.936C1069.09 371.761 1072.11 375.991 1076.16 379.086C1076.16 379.086 1081.64 382.55 1095.97 384.156C1109.18 385.026 1122.44 384.656 1135.59 383.054C1139.74 382.456 1140.66 386.455 1142.99 397.447C1145.03 407.053 1146.83 423.398 1150.61 423.43Z" fill="#263238"/>
<path d="M1157.29 380.944L1170.73 373.574C1170.3 372.664 1169.68 371.853 1168.92 371.189C1168.16 370.525 1167.27 370.024 1166.31 369.714C1165.35 369.405 1164.34 369.294 1163.33 369.389C1162.33 369.484 1161.35 369.783 1160.47 370.267C1158.66 371.296 1157.33 372.979 1156.74 374.968C1156.14 376.956 1156.34 379.097 1157.29 380.944Z" fill="#263238"/>
<path d="M1109.67 466.923C1109.67 466.923 1129.7 462.703 1136.66 458.924C1140.76 456.742 1144.11 453.372 1146.26 449.255C1145.25 453.357 1143.42 457.213 1140.88 460.593C1135.81 467.207 1109.73 472.246 1109.73 472.246L1109.67 466.923Z" fill="#9A4A4D"/>
<path d="M1108.06 416.469C1108.05 417.006 1108.15 417.538 1108.35 418.036C1108.55 418.534 1108.84 418.988 1109.22 419.372C1109.59 419.755 1110.04 420.061 1110.53 420.271C1111.03 420.481 1111.56 420.591 1112.09 420.595C1112.93 420.627 1113.76 420.406 1114.47 419.963C1115.18 419.519 1115.74 418.873 1116.08 418.107C1116.42 417.341 1116.52 416.491 1116.37 415.666C1116.22 414.842 1115.83 414.081 1115.24 413.482C1114.66 412.883 1113.91 412.473 1113.09 412.305C1112.27 412.138 1111.41 412.22 1110.64 412.542C1109.87 412.863 1109.21 413.409 1108.75 414.11C1108.29 414.81 1108.05 415.632 1108.06 416.469V416.469Z" fill="#263238"/>
<path d="M1120 402.643L1111.05 398.581C1110.53 399.804 1110.5 401.18 1110.97 402.424C1111.44 403.668 1112.37 404.682 1113.57 405.257C1114.16 405.52 1114.8 405.66 1115.45 405.67C1116.1 405.68 1116.74 405.559 1117.34 405.315C1117.94 405.071 1118.48 404.709 1118.94 404.25C1119.4 403.791 1119.76 403.244 1120 402.643Z" fill="#263238"/>
<path d="M1081.73 397.699L1073.95 403.809C1074.32 404.338 1074.79 404.787 1075.34 405.126C1075.89 405.465 1076.5 405.687 1077.14 405.778C1077.78 405.87 1078.43 405.829 1079.05 405.658C1079.67 405.487 1080.25 405.19 1080.76 404.785C1081.79 403.949 1082.46 402.751 1082.64 401.435C1082.83 400.119 1082.5 398.783 1081.73 397.699V397.699Z" fill="#263238"/>
<path d="M1077.04 415.493C1077.08 416.245 1077.33 416.97 1077.78 417.577C1078.22 418.184 1078.84 418.647 1079.54 418.908C1080.25 419.169 1081.02 419.217 1081.75 419.045C1082.48 418.874 1083.15 418.491 1083.67 417.943C1084.19 417.396 1084.53 416.709 1084.66 415.967C1084.79 415.226 1084.7 414.462 1084.4 413.771C1084.1 413.081 1083.6 412.494 1082.97 412.083C1082.34 411.673 1081.6 411.457 1080.85 411.462C1080.33 411.474 1079.83 411.588 1079.35 411.798C1078.88 412.007 1078.46 412.308 1078.1 412.683C1077.75 413.058 1077.47 413.499 1077.29 413.982C1077.11 414.464 1077.02 414.978 1077.04 415.493Z" fill="#263238"/>
<path d="M1097.89 412.249L1095.62 436.342L1083.18 431.555L1097.89 412.249Z" fill="#9A4A4D"/>
<path d="M1104.72 445.381C1104.72 446.148 1104.94 446.9 1105.36 447.542C1105.78 448.183 1106.38 448.684 1107.09 448.982C1107.8 449.28 1108.58 449.361 1109.33 449.216C1110.09 449.07 1110.78 448.703 1111.32 448.163C1111.87 447.622 1112.24 446.932 1112.39 446.18C1112.54 445.428 1112.47 444.647 1112.18 443.937C1111.89 443.228 1111.39 442.621 1110.75 442.194C1110.11 441.767 1109.36 441.539 1108.6 441.539C1107.57 441.539 1106.59 441.942 1105.87 442.662C1105.14 443.382 1104.73 444.359 1104.72 445.381V445.381Z" fill="#9A4A4D"/>
<path d="M1203.05 188.798C1209.05 190.135 1214.84 192.309 1220.24 195.254C1225.41 198.035 1230.04 201.714 1233.91 206.12C1237.64 210.388 1240.39 215.418 1241.97 220.859C1243.63 226.626 1243.76 232.726 1242.35 238.559C1241.42 243.189 1239.58 247.588 1236.93 251.503C1234.56 254.871 1231.71 257.873 1228.46 260.416C1225.29 262.879 1221.91 265.06 1218.35 266.935L1208.34 272.226C1205.32 273.804 1202.45 275.659 1199.77 277.769C1197.35 279.604 1195.5 282.081 1194.42 284.918C1193.87 286.183 1192.99 287.273 1191.87 288.068C1191.33 288.48 1190.7 288.765 1190.04 288.901C1189.37 289.038 1188.68 289.022 1188.02 288.855L1173.29 285.705C1172.58 285.556 1171.91 285.268 1171.31 284.857C1170.72 284.446 1170.21 283.921 1169.82 283.312C1169.41 282.742 1169.14 282.082 1169.03 281.387C1168.92 280.692 1168.97 279.981 1169.19 279.312C1170.42 274.731 1172.56 270.445 1175.49 266.714C1178.13 263.422 1181.18 260.48 1184.56 257.959C1187.83 255.568 1191.29 253.46 1194.92 251.66C1198.51 249.865 1201.85 248.133 1204.94 246.432C1207.76 244.941 1210.41 243.146 1212.84 241.078C1214.96 239.292 1216.43 236.857 1217.03 234.149C1217.57 231.785 1217.54 229.323 1216.92 226.976C1216.31 224.629 1215.14 222.465 1213.5 220.67C1209.43 216.22 1203.99 213.259 1198.04 212.261C1187.04 209.804 1177.74 213.51 1170.14 223.378C1169.41 224.459 1168.48 225.389 1167.4 226.118C1166.81 226.416 1166.17 226.594 1165.52 226.643C1164.86 226.692 1164.21 226.61 1163.58 226.402L1147.84 222.906C1147.28 222.799 1146.75 222.582 1146.28 222.269C1145.81 221.955 1145.41 221.551 1145.1 221.079C1144.75 220.597 1144.52 220.044 1144.42 219.462C1144.32 218.879 1144.34 218.28 1144.5 217.709C1145.82 212.869 1148.31 208.426 1151.74 204.765C1155.6 200.512 1160.17 196.972 1165.25 194.309C1170.83 191.384 1176.84 189.384 1183.05 188.388C1189.68 187.222 1196.47 187.361 1203.05 188.798V188.798ZM1186.42 300.728C1187.11 300.876 1187.76 301.165 1188.34 301.576C1188.91 301.988 1189.39 302.514 1189.76 303.122C1190.14 303.71 1190.41 304.37 1190.53 305.063C1190.66 305.756 1190.64 306.467 1190.48 307.153L1186.7 324.223C1186.38 325.586 1185.55 326.772 1184.37 327.53C1183.2 328.288 1181.77 328.559 1180.4 328.286L1163.71 324.601C1163.02 324.453 1162.37 324.168 1161.8 323.762C1161.23 323.356 1160.74 322.838 1160.37 322.239C1159.98 321.653 1159.71 320.993 1159.59 320.299C1159.46 319.605 1159.48 318.893 1159.65 318.207L1163.43 301.106C1163.74 299.743 1164.58 298.557 1165.75 297.799C1166.93 297.041 1168.35 296.77 1169.73 297.043L1186.42 300.728Z" fill="#BA68C8"/>
<path d="M1252.56 349.387C1256.72 348.7 1260.96 348.615 1265.15 349.135C1269.18 349.592 1273.1 350.765 1276.71 352.599C1280.16 354.366 1283.19 356.858 1285.59 359.906C1288.14 363.172 1289.78 367.049 1290.35 371.149C1291 374.339 1291 377.628 1290.35 380.818C1289.69 383.593 1288.63 386.257 1287.2 388.723C1285.8 391.1 1284.19 393.355 1282.41 395.463L1277.34 401.447C1275.82 403.237 1274.45 405.154 1273.25 407.179C1272.18 408.978 1271.64 411.039 1271.67 413.131C1271.67 414.114 1271.38 415.075 1270.85 415.902C1270.61 416.299 1270.29 416.637 1269.9 416.892C1269.51 417.148 1269.08 417.316 1268.62 417.383L1258.32 419.083C1257.32 419.24 1256.31 419.003 1255.48 418.422C1255.08 418.158 1254.74 417.805 1254.5 417.39C1254.25 416.975 1254.1 416.509 1254.07 416.028C1253.64 412.801 1253.88 409.518 1254.79 406.391C1255.61 403.585 1256.81 400.904 1258.35 398.423C1259.83 396.048 1261.5 393.804 1263.36 391.715C1265.22 389.636 1266.89 387.684 1268.46 385.794C1269.88 384.115 1271.12 382.288 1272.15 380.346C1273.05 378.659 1273.37 376.722 1273.06 374.834C1272.8 373.175 1272.15 371.603 1271.15 370.253C1270.15 368.904 1268.84 367.817 1267.33 367.086C1263.59 365.263 1259.35 364.753 1255.3 365.638C1251.62 366.179 1248.21 367.839 1245.51 370.392C1242.82 372.946 1240.98 376.267 1240.24 379.905C1240.04 380.793 1239.68 381.637 1239.17 382.393C1238.56 383.063 1237.71 383.469 1236.81 383.526L1225.85 385.322C1225.07 385.45 1224.27 385.281 1223.61 384.849C1223.27 384.626 1222.98 384.33 1222.76 383.982C1222.54 383.633 1222.4 383.241 1222.35 382.834C1221.97 379.393 1222.44 375.912 1223.71 372.692C1225.07 368.97 1227.1 365.524 1229.69 362.52C1232.52 359.223 1235.86 356.405 1239.58 354.174C1243.55 351.751 1247.96 350.125 1252.56 349.387V349.387ZM1270.54 425.571C1271.02 425.49 1271.52 425.507 1271.99 425.621C1272.47 425.734 1272.92 425.942 1273.31 426.233C1273.7 426.513 1274.04 426.869 1274.29 427.28C1274.55 427.691 1274.72 428.149 1274.79 428.626L1276.74 440.531C1276.82 441.014 1276.81 441.508 1276.69 441.984C1276.58 442.46 1276.37 442.908 1276.08 443.302C1275.81 443.7 1275.45 444.037 1275.04 444.292C1274.63 444.546 1274.17 444.713 1273.69 444.783L1262.04 446.704C1261.56 446.782 1261.07 446.764 1260.6 446.651C1260.13 446.537 1259.69 446.33 1259.3 446.042C1258.89 445.77 1258.55 445.416 1258.29 445.004C1258.03 444.592 1257.86 444.131 1257.78 443.649L1255.83 431.713C1255.69 430.731 1255.94 429.733 1256.53 428.936C1257.12 428.139 1258 427.609 1258.98 427.461L1270.54 425.571Z" fill="#BA68C8"/>
<g opacity="0.2">
<path opacity="0.2" d="M1252.56 349.387C1256.72 348.7 1260.96 348.615 1265.15 349.135C1269.18 349.592 1273.1 350.765 1276.71 352.599C1280.16 354.366 1283.19 356.858 1285.59 359.906C1288.14 363.172 1289.78 367.049 1290.35 371.149C1291 374.339 1291 377.628 1290.35 380.818C1289.69 383.593 1288.63 386.257 1287.2 388.723C1285.8 391.1 1284.19 393.355 1282.41 395.463L1277.34 401.447C1275.82 403.237 1274.45 405.154 1273.25 407.179C1272.18 408.978 1271.64 411.039 1271.67 413.131C1271.67 414.114 1271.38 415.075 1270.85 415.902C1270.61 416.299 1270.29 416.637 1269.9 416.892C1269.51 417.148 1269.08 417.316 1268.62 417.383L1258.32 419.083C1257.32 419.24 1256.31 419.003 1255.48 418.422C1255.08 418.158 1254.74 417.805 1254.5 417.39C1254.25 416.975 1254.1 416.509 1254.07 416.028C1253.64 412.801 1253.88 409.518 1254.79 406.391C1255.61 403.585 1256.81 400.904 1258.35 398.423C1259.83 396.048 1261.5 393.804 1263.36 391.715C1265.22 389.636 1266.89 387.684 1268.46 385.794C1269.88 384.115 1271.12 382.288 1272.15 380.346C1273.05 378.659 1273.37 376.722 1273.06 374.834C1272.8 373.175 1272.15 371.603 1271.15 370.253C1270.15 368.904 1268.84 367.817 1267.33 367.086C1263.59 365.263 1259.35 364.753 1255.3 365.638C1251.62 366.179 1248.21 367.839 1245.51 370.392C1242.82 372.946 1240.98 376.267 1240.24 379.905C1240.04 380.793 1239.68 381.637 1239.17 382.393C1238.56 383.063 1237.71 383.469 1236.81 383.526L1225.85 385.322C1225.07 385.45 1224.27 385.281 1223.61 384.849C1223.27 384.626 1222.98 384.33 1222.76 383.982C1222.54 383.633 1222.4 383.241 1222.35 382.834C1221.97 379.393 1222.44 375.912 1223.71 372.692C1225.07 368.97 1227.1 365.524 1229.69 362.52C1232.52 359.223 1235.86 356.405 1239.58 354.174C1243.55 351.751 1247.96 350.125 1252.56 349.387V349.387ZM1270.54 425.571C1271.02 425.49 1271.52 425.507 1271.99 425.621C1272.47 425.734 1272.92 425.942 1273.31 426.233C1273.7 426.513 1274.04 426.869 1274.29 427.28C1274.55 427.691 1274.72 428.149 1274.79 428.626L1276.74 440.531C1276.82 441.014 1276.81 441.508 1276.69 441.984C1276.58 442.46 1276.37 442.908 1276.08 443.302C1275.81 443.7 1275.45 444.037 1275.04 444.292C1274.63 444.546 1274.17 444.713 1273.69 444.783L1262.04 446.704C1261.56 446.782 1261.07 446.764 1260.6 446.651C1260.13 446.537 1259.69 446.33 1259.3 446.042C1258.89 445.77 1258.55 445.416 1258.29 445.004C1258.03 444.592 1257.86 444.131 1257.78 443.649L1255.83 431.713C1255.69 430.731 1255.94 429.733 1256.53 428.936C1257.12 428.139 1258 427.609 1258.98 427.461L1270.54 425.571Z" fill="black"/>
</g>
<path d="M1359.95 383.18C1360.89 383.862 1361.52 384.882 1361.71 386.024C1361.91 387.165 1361.65 388.337 1360.99 389.29L1352.68 400.943C1351.99 401.878 1350.97 402.51 1349.83 402.704C1348.69 402.899 1347.52 402.639 1346.57 401.982L1335.17 393.888C1334.7 393.559 1334.3 393.138 1333.99 392.651C1333.69 392.164 1333.49 391.621 1333.4 391.054C1333.24 389.95 1333.49 388.824 1334.13 387.904L1342.44 376.22C1343.12 375.281 1344.13 374.647 1345.27 374.456C1346.38 374.29 1347.51 374.561 1348.42 375.212L1359.95 383.18ZM1408.07 304.161C1412.19 307.061 1415.86 310.541 1418.97 314.491C1421.98 318.25 1424.3 322.516 1425.81 327.089C1427.25 331.459 1427.73 336.089 1427.22 340.663C1426.63 345.533 1424.79 350.167 1421.87 354.111C1419.69 357.3 1416.91 360.029 1413.68 362.142C1410.81 363.925 1407.69 365.273 1404.42 366.142C1401.25 366.987 1398.02 367.556 1394.75 367.842L1385.49 368.63C1382.73 368.883 1379.99 369.368 1377.3 370.078C1374.9 370.713 1372.72 371.999 1371.01 373.795C1370.18 374.598 1369.16 375.174 1368.05 375.464C1367.5 375.592 1366.94 375.6 1366.4 375.485C1365.85 375.371 1365.34 375.138 1364.9 374.803L1354.82 367.653C1353.86 366.961 1353.2 365.922 1352.99 364.756C1352.87 364.206 1352.88 363.635 1353.02 363.089C1353.15 362.543 1353.41 362.035 1353.78 361.606C1356.12 358.533 1359.07 355.972 1362.44 354.079C1365.47 352.417 1368.71 351.167 1372.08 350.363C1375.3 349.583 1378.59 349.077 1381.9 348.851C1385.05 348.662 1388.2 348.41 1391.1 348.127C1393.7 347.903 1396.27 347.385 1398.75 346.584C1400.92 345.924 1402.8 344.561 1404.11 342.71C1405.28 341.106 1406.04 339.241 1406.32 337.276C1406.61 335.311 1406.41 333.306 1405.74 331.435C1404.1 326.794 1400.95 322.836 1396.8 320.192C1389.3 314.838 1381.12 314.659 1372.23 319.656C1371.34 320.228 1370.35 320.634 1369.3 320.853C1368.76 320.891 1368.22 320.822 1367.71 320.649C1367.19 320.476 1366.72 320.203 1366.31 319.845L1355.6 312.224C1354.83 311.693 1354.28 310.88 1354.09 309.956C1354 309.484 1354.01 308.997 1354.13 308.529C1354.24 308.062 1354.46 307.625 1354.75 307.247C1357.25 304.026 1360.49 301.464 1364.2 299.783C1368.46 297.813 1373.04 296.608 1377.71 296.225C1382.84 295.807 1387.99 296.211 1392.99 297.421C1398.41 298.646 1403.54 300.937 1408.07 304.161V304.161Z" fill="#BA68C8"/>
<g opacity="0.6">
<path opacity="0.6" d="M1359.95 383.18C1360.89 383.862 1361.52 384.882 1361.71 386.024C1361.91 387.165 1361.65 388.337 1360.99 389.29L1352.68 400.943C1351.99 401.878 1350.97 402.51 1349.83 402.704C1348.69 402.899 1347.52 402.639 1346.57 401.982L1335.17 393.888C1334.7 393.559 1334.3 393.138 1333.99 392.651C1333.69 392.164 1333.49 391.621 1333.4 391.054C1333.24 389.95 1333.49 388.824 1334.13 387.904L1342.44 376.22C1343.12 375.281 1344.13 374.647 1345.27 374.456C1346.38 374.29 1347.51 374.561 1348.42 375.212L1359.95 383.18ZM1408.07 304.161C1412.19 307.061 1415.86 310.541 1418.97 314.491C1421.98 318.25 1424.3 322.516 1425.81 327.089C1427.25 331.459 1427.73 336.089 1427.22 340.663C1426.63 345.533 1424.79 350.167 1421.87 354.111C1419.69 357.3 1416.91 360.029 1413.68 362.142C1410.81 363.925 1407.69 365.273 1404.42 366.142C1401.25 366.987 1398.02 367.556 1394.75 367.842L1385.49 368.63C1382.73 368.883 1379.99 369.368 1377.3 370.078C1374.9 370.713 1372.72 371.999 1371.01 373.795C1370.18 374.598 1369.16 375.174 1368.05 375.464C1367.5 375.592 1366.94 375.6 1366.4 375.485C1365.85 375.371 1365.34 375.138 1364.9 374.803L1354.82 367.653C1353.86 366.961 1353.2 365.922 1352.99 364.756C1352.87 364.206 1352.88 363.635 1353.02 363.089C1353.15 362.543 1353.41 362.035 1353.78 361.606C1356.12 358.533 1359.07 355.972 1362.44 354.079C1365.47 352.417 1368.71 351.167 1372.08 350.363C1375.3 349.583 1378.59 349.077 1381.9 348.851C1385.05 348.662 1388.2 348.41 1391.1 348.127C1393.7 347.903 1396.27 347.385 1398.75 346.584C1400.92 345.924 1402.8 344.561 1404.11 342.71C1405.28 341.106 1406.04 339.241 1406.32 337.276C1406.61 335.311 1406.41 333.306 1405.74 331.435C1404.1 326.794 1400.95 322.836 1396.8 320.192C1389.3 314.838 1381.12 314.659 1372.23 319.656C1371.34 320.228 1370.35 320.634 1369.3 320.853C1368.76 320.891 1368.22 320.822 1367.71 320.649C1367.19 320.476 1366.72 320.203 1366.31 319.845L1355.6 312.224C1354.83 311.693 1354.28 310.88 1354.09 309.956C1354 309.484 1354.01 308.997 1354.13 308.529C1354.24 308.062 1354.46 307.625 1354.75 307.247C1357.25 304.026 1360.49 301.464 1364.2 299.783C1368.46 297.813 1373.04 296.608 1377.71 296.225C1382.84 295.807 1387.99 296.211 1392.99 297.421C1398.41 298.646 1403.54 300.937 1408.07 304.161V304.161Z" fill="white"/>
</g>
<path d="M345.082 1006.7C344.767 997.254 351.57 904.913 351.57 904.913L306.596 937.541C315.824 992.593 317.808 1005.6 317.966 1014.61C317.775 1015.36 317.691 1016.13 317.714 1016.91C317.714 1027.61 329.839 1033.38 339.256 1040.53C347.259 1046.79 355.783 1052.35 364.734 1057.16C371.569 1060.59 385.489 1060.9 387.19 1056.49C375.726 1047.74 359.066 1034.64 349.932 1024.65C345.586 1019.87 345.429 1016.09 345.082 1006.7Z" fill="#FFA8A7"/>
<path d="M406.748 1068.05C407.258 1069.52 407.348 1071.11 407.009 1072.62C406.669 1074.14 405.914 1075.54 404.827 1076.65C396.567 1082.61 386.286 1085.05 376.23 1083.45C361.931 1081.6 354.184 1077.53 348.483 1072.75C342.783 1067.96 334.752 1061.22 328.264 1059.8C323.106 1058.82 318.2 1056.81 313.84 1053.88C311.919 1052.02 312.171 1043.77 312.171 1043.77L406.748 1068.05Z" fill="#263238"/>
<path d="M317.871 1011.99C317.342 1012.01 316.834 1012.21 316.437 1012.56C316.04 1012.91 315.779 1013.39 315.698 1013.91C315.257 1016.18 314.785 1022.8 313.84 1026.51C312.378 1033.08 311.911 1039.83 312.454 1046.54C313.242 1050.79 323.005 1053.72 329.272 1055.99C336.642 1059.2 343.482 1063.51 349.554 1068.78C358.318 1075.33 368.779 1079.23 379.694 1080.02C390.717 1080.02 403.126 1076.37 405.992 1071.27C409.488 1064.97 406.748 1061.28 390.402 1053.69C387.253 1052.27 376.45 1045.82 372.734 1043.49C362.719 1037.19 352.798 1028.4 348.169 1017.25C347.795 1015.89 346.974 1014.69 345.838 1013.85C344.846 1013.42 343.746 1013.31 342.689 1013.54C339.959 1013.93 337.304 1014.74 334.815 1015.93C332.642 1016.97 329.524 1018.2 329.556 1021C329.623 1021.97 329.835 1022.93 330.185 1023.83C330.374 1024.43 330.532 1025.19 330.185 1025.54C329.839 1025.88 329.083 1025.54 328.642 1025.09C327.039 1023.45 325.575 1021.69 324.265 1019.8C323.49 1018.84 322.614 1017.96 321.65 1017.19C320.687 1016.64 319.761 1016.03 318.879 1015.36C317.682 1014.51 317.934 1013.32 317.871 1011.99Z" fill="#455A64"/>
<path d="M349.554 1068.93C346.688 1066.6 343.665 1064.3 340.641 1062.29C340.641 1062.29 359.853 1073.97 367.601 1068.59C369.038 1067.68 370.09 1066.27 370.555 1064.63C371.02 1062.99 370.865 1061.24 370.12 1059.71C370.12 1058.38 382.34 1052.68 387.19 1052.12C388.544 1052.87 389.678 1053.47 390.339 1053.79C406.685 1061.38 409.425 1065.03 405.929 1071.36C403.063 1076.46 394.087 1080.46 379.852 1080.46C370.592 1080.65 356.168 1074.35 349.554 1068.93Z" fill="#37474F"/>
<path d="M368.766 1055.9C378.938 1059.96 374.592 1061.85 371.758 1062.19C368.923 1062.54 351.822 1052.75 341.366 1044.37C330.91 1035.99 323.635 1026.32 319.603 1023.17C318.092 1022.01 316.454 1020.56 315.005 1019.21C315.289 1016.97 315.509 1014.92 315.698 1013.85C315.779 1013.33 316.04 1012.85 316.437 1012.5C316.834 1012.15 317.341 1011.95 317.871 1011.93C317.871 1013.25 317.682 1014.48 318.69 1015.46C319.572 1016.13 320.498 1016.74 321.461 1017.28C322.425 1018.06 323.301 1018.93 324.075 1019.9C325.386 1021.78 326.85 1023.55 328.453 1025.19C339.786 1037.93 353.475 1048.35 368.766 1055.9V1055.9Z" fill="#263238"/>
<path d="M371.033 1060.78C370.801 1060.77 370.578 1060.68 370.403 1060.53C370.301 1060.45 370.216 1060.35 370.152 1060.23C370.089 1060.12 370.048 1059.99 370.034 1059.87C370.019 1059.74 370.03 1059.61 370.067 1059.48C370.103 1059.36 370.164 1059.24 370.246 1059.14C372.641 1056.65 375.542 1054.71 378.753 1053.44C381.964 1052.16 385.41 1051.6 388.859 1051.77C389.129 1051.8 389.377 1051.94 389.547 1052.15C389.718 1052.36 389.799 1052.63 389.772 1052.9C389.741 1053.17 389.608 1053.41 389.401 1053.57C389.195 1053.74 388.933 1053.81 388.67 1053.79C385.556 1053.66 382.45 1054.18 379.548 1055.32C376.647 1056.46 374.015 1058.19 371.821 1060.4C371.725 1060.52 371.605 1060.61 371.469 1060.68C371.333 1060.74 371.184 1060.78 371.033 1060.78V1060.78Z" fill="#F5F5F5"/>
<path d="M362.183 1055.46C361.943 1055.47 361.708 1055.39 361.522 1055.23C361.343 1055.04 361.243 1054.79 361.243 1054.53C361.243 1054.26 361.343 1054.01 361.522 1053.82C363.923 1051.34 366.825 1049.4 370.035 1048.14C373.246 1046.87 376.689 1046.31 380.135 1046.48C380.402 1046.51 380.647 1046.64 380.815 1046.85C380.984 1047.06 381.062 1047.33 381.033 1047.6C381.004 1047.86 380.869 1048.11 380.66 1048.28C380.45 1048.45 380.182 1048.52 379.915 1048.49C376.8 1048.36 373.691 1048.88 370.789 1050.02C367.886 1051.15 365.255 1052.89 363.065 1055.11C362.958 1055.23 362.821 1055.33 362.668 1055.39C362.514 1055.45 362.348 1055.47 362.183 1055.46V1055.46Z" fill="#F5F5F5"/>
<path d="M353.302 1050.13C353.073 1050.14 352.85 1050.06 352.672 1049.91C352.486 1049.72 352.381 1049.47 352.381 1049.2C352.381 1048.94 352.486 1048.68 352.672 1048.5C355.074 1046.02 357.977 1044.08 361.187 1042.82C364.397 1041.55 367.839 1040.99 371.285 1041.16C371.418 1041.17 371.547 1041.21 371.665 1041.27C371.782 1041.33 371.887 1041.42 371.972 1041.52C372.057 1041.62 372.12 1041.74 372.159 1041.87C372.198 1041.99 372.212 1042.13 372.199 1042.26C372.187 1042.39 372.149 1042.52 372.087 1042.64C372.025 1042.76 371.94 1042.86 371.838 1042.95C371.735 1043.03 371.617 1043.09 371.49 1043.13C371.363 1043.17 371.229 1043.19 371.096 1043.17C367.982 1043.04 364.873 1043.55 361.97 1044.69C359.068 1045.83 356.437 1047.57 354.247 1049.79C354.13 1049.92 353.983 1050.02 353.818 1050.08C353.653 1050.14 353.476 1050.16 353.302 1050.13V1050.13Z" fill="#F5F5F5"/>
<path d="M345.082 1044.24C344.853 1044.25 344.63 1044.17 344.452 1044.02C344.356 1043.93 344.279 1043.82 344.227 1043.7C344.175 1043.58 344.147 1043.45 344.147 1043.31C344.147 1043.18 344.175 1043.05 344.227 1042.93C344.279 1042.81 344.356 1042.7 344.452 1042.61C346.85 1040.12 349.753 1038.18 352.963 1036.92C356.174 1035.65 359.619 1035.09 363.065 1035.27C363.327 1035.3 363.567 1035.43 363.731 1035.64C363.896 1035.84 363.974 1036.11 363.947 1036.37C363.915 1036.63 363.782 1036.87 363.576 1037.04C363.37 1037.2 363.107 1037.28 362.845 1037.25C359.732 1037.13 356.627 1037.65 353.726 1038.79C350.826 1039.93 348.194 1041.66 345.995 1043.87C345.888 1044 345.748 1044.11 345.588 1044.17C345.428 1044.24 345.254 1044.26 345.082 1044.24Z" fill="#F5F5F5"/>
<path d="M337.051 1038.35C336.824 1038.34 336.605 1038.27 336.421 1038.13C336.235 1037.94 336.13 1037.69 336.13 1037.42C336.13 1037.16 336.235 1036.9 336.421 1036.72C339.018 1034.01 342.198 1031.94 345.718 1030.65C349.239 1029.36 353.007 1028.89 356.735 1029.28C356.868 1029.29 356.998 1029.33 357.117 1029.39C357.235 1029.45 357.34 1029.53 357.423 1029.64C357.506 1029.74 357.567 1029.86 357.6 1029.99C357.634 1030.12 357.639 1030.25 357.617 1030.39C357.585 1030.65 357.452 1030.89 357.246 1031.05C357.04 1031.22 356.777 1031.29 356.514 1031.27C353.125 1030.93 349.705 1031.36 346.501 1032.51C343.297 1033.67 340.392 1035.52 337.996 1037.94C337.885 1038.09 337.741 1038.2 337.576 1038.27C337.411 1038.34 337.23 1038.37 337.051 1038.35V1038.35Z" fill="#F5F5F5"/>
<path d="M260.363 946.958L214.98 946.139C215.641 976.436 220.46 1010.04 221.278 1038.45C221.278 1043.8 221.278 1080.02 223.168 1091.04C226.318 1107.58 245.844 1105.34 246.883 1095.45C247.923 1085.56 245.623 1043.27 245.686 1038.76C245.497 1020.56 254.032 989.79 258.536 957.067C258.725 955.587 260.142 948.532 260.363 946.958Z" fill="#FFA8A7"/>
<path d="M254.253 1102.32C255.096 1109.9 254.013 1117.57 251.103 1124.62C249.663 1127.42 247.339 1129.66 244.492 1131.01C241.645 1132.35 238.433 1132.72 235.356 1132.05C228.648 1131.07 219.798 1127.48 217.09 1119.45C214.525 1112.05 213.622 1104.18 214.444 1096.4L254.253 1102.32Z" fill="#263238"/>
<path d="M221.152 1034.98C218.475 1035.46 218.979 1048.53 218.727 1061.66C218.444 1075.77 214.885 1081.94 214.539 1093.5C214.129 1106.73 215.421 1112.4 220.838 1119.89C226.255 1127.39 243.167 1133.43 250.001 1121.34C255.576 1111.48 254.82 1101.25 252.899 1088.27C250.977 1075.3 249.466 1065.47 248.962 1055.2C248.458 1044.94 248.237 1035.83 245.812 1034.98C245.812 1036.43 245.812 1038.29 245.812 1039.71C245.812 1041.13 246.033 1046.01 244.521 1046.32C244.288 1045.11 244.151 1043.87 244.112 1042.64C244.182 1041.49 243.81 1040.37 243.072 1039.49C242.161 1038.82 241.055 1038.46 239.923 1038.48C237.225 1038.18 234.512 1038.03 231.797 1038.04C230.443 1038.04 229.058 1038.04 227.735 1038.26C226.571 1038.35 225.431 1038.64 224.365 1039.11C224.051 1039.24 223.768 1039.44 223.535 1039.69C223.302 1039.94 223.123 1040.24 223.011 1040.56C222.916 1041.06 222.916 1041.57 223.011 1042.07C223.121 1042.97 223.121 1043.88 223.011 1044.78C223.011 1045.19 222.727 1045.69 222.318 1045.63C221.908 1045.57 221.845 1045.19 221.814 1044.87C221.625 1043.3 221.814 1042.13 221.625 1040.31C221.625 1039.46 221.625 1038.29 221.625 1037.44C221.625 1036.59 221.184 1035.83 221.152 1034.98Z" fill="#455A64"/>
<path d="M214.759 1089.72C214.759 1091.64 214.35 1104.27 217.909 1106.16C221.467 1108.05 222.853 1098.22 222.853 1098.22C222.853 1098.22 231.199 1094.73 244.301 1098.95C243.86 1101.03 246.442 1107.52 249.749 1105.75C253.056 1103.99 252.899 1089.59 252.899 1089.41C254.694 1102 255.261 1111.77 249.749 1121.34C242.915 1133.43 225.94 1127.32 220.586 1119.89C215.232 1112.46 213.94 1106.73 214.287 1093.5C214.444 1092.18 214.665 1090.95 214.759 1089.72Z" fill="#37474F"/>
<path d="M223.892 1098.95C224.302 1103.67 219.515 1102.57 218.633 1095.8C217.751 1089.03 219.83 1073 218.633 1061.53C218.885 1048.4 218.381 1035.33 221.058 1034.86C221.042 1035.01 221.042 1035.17 221.058 1035.33L221.373 1041.98C221.311 1042.92 221.311 1043.87 221.373 1044.81C222.255 1054.45 222.79 1073.15 222.822 1082.04C222.877 1087.69 223.235 1093.33 223.892 1098.95V1098.95Z" fill="#263238"/>
<path d="M242.789 1098.95C243.406 1093.37 243.711 1087.77 243.702 1082.16C243.702 1073.34 244.269 1054.86 245.151 1045.16C245.492 1043.36 245.63 1041.53 245.561 1039.71C245.561 1038.39 245.561 1036.56 245.561 1035.3C245.561 1035.3 245.561 1035.11 245.561 1034.98C247.324 1035.65 247.954 1040.84 248.332 1047.39C248.332 1051.2 248.332 1055.93 247.986 1061.66C246.789 1073.12 248.867 1089.37 247.986 1096.02C247.104 1102.66 242.474 1103.67 242.789 1098.95Z" fill="#263238"/>
<path d="M244.647 1099.3H244.301C237.496 1096.95 230.099 1096.95 223.294 1099.3C223.17 1099.34 223.038 1099.37 222.905 1099.36C222.772 1099.36 222.641 1099.33 222.52 1099.27C222.399 1099.22 222.289 1099.14 222.198 1099.05C222.106 1098.95 222.035 1098.84 221.987 1098.71C221.94 1098.59 221.917 1098.46 221.92 1098.32C221.924 1098.19 221.954 1098.06 222.008 1097.94C222.062 1097.82 222.139 1097.71 222.236 1097.62C222.332 1097.52 222.446 1097.45 222.57 1097.41C229.83 1094.81 237.765 1094.81 245.025 1097.41C245.149 1097.45 245.262 1097.52 245.358 1097.61C245.454 1097.7 245.531 1097.81 245.584 1097.93C245.637 1098.05 245.665 1098.18 245.666 1098.31C245.668 1098.44 245.642 1098.58 245.592 1098.7C245.515 1098.88 245.383 1099.04 245.214 1099.14C245.045 1099.25 244.847 1099.3 244.647 1099.3V1099.3Z" fill="#F5F5F5"/>
<path d="M245.938 1088.84C245.825 1088.87 245.706 1088.87 245.592 1088.84C237.941 1086.46 229.749 1086.46 222.097 1088.84C221.971 1088.88 221.838 1088.9 221.704 1088.89C221.571 1088.89 221.44 1088.85 221.32 1088.79C221.2 1088.74 221.092 1088.65 221.004 1088.55C220.916 1088.45 220.849 1088.34 220.806 1088.21C220.762 1088.09 220.743 1087.95 220.751 1087.82C220.759 1087.69 220.794 1087.56 220.853 1087.45C220.911 1087.33 220.993 1087.22 221.094 1087.14C221.194 1087.05 221.31 1086.99 221.436 1086.95C229.519 1084.38 238.202 1084.38 246.285 1086.95C246.506 1087.03 246.692 1087.19 246.809 1087.39C246.926 1087.6 246.968 1087.84 246.926 1088.07C246.885 1088.3 246.764 1088.51 246.583 1088.67C246.403 1088.82 246.174 1088.9 245.938 1088.9V1088.84Z" fill="#F5F5F5"/>
<path d="M221.688 1078.95C221.495 1078.94 221.308 1078.89 221.146 1078.78C220.985 1078.67 220.856 1078.53 220.774 1078.35C220.668 1078.11 220.661 1077.83 220.755 1077.59C220.849 1077.34 221.037 1077.14 221.278 1077.03C229.234 1073.9 238.069 1073.84 246.064 1076.87C246.188 1076.92 246.301 1076.99 246.398 1077.08C246.494 1077.17 246.57 1077.28 246.623 1077.4C246.676 1077.52 246.704 1077.65 246.706 1077.78C246.707 1077.91 246.682 1078.04 246.631 1078.16C246.533 1078.41 246.343 1078.6 246.101 1078.71C245.86 1078.82 245.587 1078.82 245.34 1078.73C245.34 1078.73 232.994 1073.88 222.129 1078.73C222 1078.84 221.85 1078.91 221.688 1078.95Z" fill="#F5F5F5"/>
<path d="M221.467 1069.69C221.277 1069.69 221.09 1069.64 220.929 1069.54C220.767 1069.44 220.637 1069.29 220.554 1069.12C220.445 1068.88 220.434 1068.61 220.522 1068.37C220.61 1068.12 220.791 1067.92 221.026 1067.8C224.975 1066 229.255 1065.05 233.594 1065C237.933 1064.95 242.234 1065.81 246.222 1067.52C246.341 1067.57 246.449 1067.65 246.537 1067.75C246.626 1067.84 246.695 1067.96 246.739 1068.08C246.783 1068.2 246.802 1068.33 246.794 1068.46C246.786 1068.59 246.752 1068.72 246.694 1068.84C246.64 1068.96 246.563 1069.07 246.466 1069.16C246.37 1069.24 246.257 1069.31 246.133 1069.36C246.01 1069.4 245.879 1069.42 245.748 1069.41C245.617 1069.4 245.489 1069.37 245.371 1069.31C241.63 1067.76 237.613 1066.99 233.564 1067.04C229.514 1067.09 225.517 1067.96 221.814 1069.6C221.704 1069.65 221.587 1069.68 221.467 1069.69Z" fill="#F5F5F5"/>
<path d="M221.247 1059.33C221.016 1059.33 220.791 1059.26 220.61 1059.11C220.428 1058.97 220.301 1058.77 220.25 1058.55C220.198 1058.32 220.225 1058.09 220.326 1057.88C220.428 1057.67 220.597 1057.51 220.806 1057.41C232.805 1051.49 245.749 1057.16 246.285 1057.41C246.41 1057.46 246.524 1057.53 246.619 1057.62C246.713 1057.72 246.787 1057.83 246.835 1057.96C246.882 1058.08 246.903 1058.21 246.895 1058.35C246.887 1058.48 246.851 1058.61 246.789 1058.73C246.679 1058.97 246.478 1059.16 246.231 1059.25C245.983 1059.35 245.708 1059.34 245.466 1059.23C245.466 1059.23 232.868 1053.72 221.719 1059.23C221.574 1059.31 221.41 1059.34 221.247 1059.33V1059.33Z" fill="#F5F5F5"/>
<path d="M229.908 652.329C213.909 696.642 216.712 724.451 219.452 770.905C221.971 813.485 225.971 850.995 225.971 850.995C225.341 858.553 214.822 873.293 213.373 906.677C212.909 930.183 213.961 953.695 216.523 977.066C216.523 977.066 237.466 984.719 255.166 977.066C255.166 977.066 273.275 897.102 278.22 858.018C282.503 823.91 289.999 780.322 289.999 780.322L305.746 857.861C302.668 868.281 301.088 879.087 301.053 889.953C301.053 908.188 309.525 958.894 309.525 958.894C309.525 958.894 332.988 966.484 347.854 953.288C347.854 953.288 353.743 880.316 355.822 852.506C358.593 815.406 354.562 713.712 345.649 661.652L229.908 652.329Z" fill="#455A64"/>
<path d="M290.188 780.196L296.739 721.869C296.739 721.869 326.06 717.963 339.35 705.46C335.538 711.423 330.456 716.471 324.467 720.244C318.479 724.017 311.731 726.421 304.707 727.286L295.258 781.582L305.966 857.735L290.188 780.196Z" fill="#37474F"/>
<path d="M362.687 609.088C348.421 594.412 322.658 561.217 322.658 561.217L308.108 510.826C311.36 510.995 314.619 510.995 317.871 510.826C333.618 511.865 338.248 513.22 348.043 523.928C355.822 532.462 385.489 572.964 395.788 586.601L423.156 551.737C429.739 541.816 428.668 530.699 432.069 522.605C435.47 514.511 440.982 510.952 445.391 503.708C449.8 496.465 450.84 491.615 454.461 495.362C458.083 499.11 453.895 509.188 453.359 511.487C452.824 513.786 447.281 520.621 456.509 517.062C465.736 513.503 479.972 496.654 483.625 493.221C487.278 489.788 489.231 495.11 488.412 499.331C487.593 503.551 491.562 513.062 490.113 520.022C489.211 527.023 485.73 533.436 480.35 538.005C473.704 544.682 457.453 552.902 451.092 561.689C444.73 570.476 431.156 597.781 422.747 614.221C412.196 635.134 403.22 642.031 391.253 634.976C379.285 627.921 367.947 614.536 362.687 609.088Z" fill="#FFA8A7"/>
<path d="M312.738 510.291C320.79 509.486 328.92 510.564 336.484 513.44C345.019 517.282 350.814 525.534 359.16 536.714C367.506 547.895 382.403 567.453 382.403 567.453C382.403 567.453 378.371 584.428 351.79 599.671L308.391 554.981L312.738 510.291Z" fill="#37474F"/>
<path d="M395.788 586.57C390.596 591.467 387.118 597.904 385.867 604.931C385.867 604.931 382.718 594.821 393.457 583.452L395.788 586.57Z" fill="#F28F8F"/>
<path d="M344.169 599.766C363.538 583.829 357.144 563.075 350.09 549.091C335.949 521.156 321.241 510.165 315.1 510.259L276.582 510.637C258.19 513.156 243.954 511.897 239.514 512.936C228.176 515.613 227.924 524.935 227.483 536.998C227.01 550.225 220.239 547.989 223.672 569.846C227.721 577.97 231.276 586.331 234.317 594.884C236.396 602.443 242.254 614.473 239.136 626.693C237.939 631.417 234.726 636.141 229.908 649.085C224.444 663.635 220.384 678.674 217.783 693.996C217.783 693.996 229.026 691.382 241.813 677.777C241.813 677.777 259.292 701.177 301.337 698.815C344.956 696.358 348.798 673.619 348.798 673.619L342.122 632.677C343.13 616.143 343.57 610.159 344.169 599.766Z" fill="#BA68C8"/>
<path opacity="0.1" d="M319.005 595.64C319.005 595.64 303.258 608.237 284.771 602.191C279.621 600.647 274.952 597.81 271.209 593.951C267.466 590.092 264.773 585.339 263.386 580.145C263.386 580.145 261.811 601.088 285.054 607.828C291.272 609.714 297.931 609.547 304.046 607.352C310.161 605.156 315.407 601.05 319.005 595.64V595.64Z" fill="black"/>
<path d="M208.744 492.276C203.043 488.119 172.336 529.219 186.698 539.517C201.059 549.816 216.365 520.621 213.279 506.826C210.192 493.032 208.744 492.276 208.744 492.276Z" fill="#37474F"/>
<path d="M180.871 471.868C188.556 461.223 193.784 453.192 200.807 444.058C204.775 438.862 207.326 435.177 211.137 429.854C213.783 426.201 215.326 423.115 218.286 421.949C221.591 420.495 224.545 418.346 226.947 415.65C228.418 413.946 229.776 412.147 231.01 410.265C235.449 404.118 240.753 398.644 246.757 394.014C253.056 389.132 259.953 385.353 266.378 380.692C270.189 377.92 274.283 373.354 269.528 369.228C268.05 368.035 266.295 367.233 264.425 366.897C252.962 364.598 243.041 368.724 231.892 371.779C227.044 373.101 222.306 374.796 217.72 376.85C215.443 377.774 213.319 379.037 211.421 380.597C208.783 383.353 206.651 386.551 205.122 390.046C200.24 399.022 189.942 407.021 182.73 414.044C174.258 422.296 166.699 429.791 157.03 438.956C148.338 447.145 139.803 454.703 131.835 463.648C125.253 471.017 127.804 476.686 128.685 478.607C134.354 489.756 140.527 493.693 147.96 500.653C150.416 502.921 152.905 505.157 155.393 507.393C165.03 516.085 174.667 524.211 184.682 532.588C195.39 541.407 199.799 545.69 209.342 554.256C215.364 559.787 220.383 566.319 224.176 573.562C240.71 576.302 256.961 551.013 242.789 521.44C240.458 516.657 236.932 512.556 232.553 509.535C215.106 497.094 180.871 471.868 180.871 471.868Z" fill="#FFA8A7"/>
<path d="M180.871 471.868C175.713 478.417 168.783 483.347 160.904 486.072C160.904 486.072 171.455 488.591 185.627 475.395L180.871 471.868Z" fill="#F28F8F"/>
<path d="M240.836 512.684C236.962 510.007 227.546 504.307 208.744 492.276C208.744 492.276 211.641 498.354 207.075 513.629C202.508 528.904 192.871 538.572 186.824 539.675C186.824 539.675 197.343 547.989 207.043 557.374C216.743 566.76 224.711 573.405 230.317 584.302C230.317 584.302 244.175 580.743 247.324 557.248C249.529 540.777 248.206 521.44 240.836 512.684Z" fill="#455A64"/>
<path d="M346.027 437.035C348.796 431.184 350.015 424.72 349.568 418.262C349.122 411.804 347.024 405.57 343.476 400.155C331.54 383.18 311.415 374.96 289.18 375.212H282.283C252.269 375.716 224.995 401.478 224.459 430.484C224.459 450.892 224.459 469.758 235.703 483.678C246.064 496.622 262.221 500.874 275.858 502.952C301.935 506.921 331.225 503.897 343.066 486.134C343.066 486.134 327.319 489.284 329.304 472.97C329.587 470.387 327.13 467.553 322.816 464.624C325.838 459.389 329.395 454.481 333.429 449.979C337.87 445.538 343.004 443.05 346.027 437.035Z" fill="#263238"/>
<path d="M338.248 451.932C338.09 482.324 328.359 489.977 323.477 492.244C318.596 494.512 309.021 493.315 299.731 491.961L300.045 510.196C300.045 510.196 310.911 521.188 310.281 529.565C309.651 537.943 293.652 539.013 281.527 531.171C274.848 526.748 268.789 521.452 263.512 515.424C262.505 514.258 261.937 512.776 261.906 511.235L261.15 468.372C261.15 468.372 256.174 473.82 247.104 467.836C245.144 466.639 243.455 465.047 242.144 463.161C240.832 461.276 239.927 459.139 239.486 456.885C239.045 454.631 239.077 452.31 239.581 450.07C240.084 447.829 241.048 445.718 242.411 443.869C243.692 442.623 245.231 441.674 246.92 441.087C248.608 440.501 250.404 440.292 252.182 440.475C253.96 440.658 255.676 441.229 257.209 442.148C258.742 443.066 260.055 444.309 261.056 445.79C263.827 450.956 263.575 454.609 267.354 454.01C271.134 453.412 271.291 449.318 271.543 446.389C271.795 443.46 271.543 442.515 271.921 438.673C280.897 436.752 290.188 424.248 291.227 415.115C297.308 418.106 304.009 419.617 310.785 419.524C320.832 418.831 326.028 416.816 330.973 409.572C332.151 411.229 333.094 413.042 333.776 414.958C335.175 418.836 336.229 422.83 336.925 426.894C338.047 435.19 338.489 443.564 338.248 451.932V451.932Z" fill="#FFA8A7"/>
<path d="M299.731 491.961C289.936 490.827 269.748 485.41 266.473 477.537C267.797 481.534 270.314 485.029 273.685 487.552C279.795 492.591 299.825 498.039 299.825 498.039L299.731 491.961Z" fill="#F28F8F"/>
<path d="M309.588 475.584C309.607 476.376 309.39 477.156 308.964 477.824C308.539 478.493 307.925 479.02 307.2 479.339C306.474 479.658 305.671 479.755 304.891 479.616C304.11 479.478 303.389 479.111 302.818 478.561C302.246 478.012 301.851 477.306 301.682 476.532C301.513 475.758 301.577 474.951 301.867 474.214C302.157 473.476 302.66 472.842 303.311 472.39C303.963 471.939 304.733 471.691 305.525 471.679C306.581 471.662 307.6 472.063 308.361 472.794C309.122 473.526 309.563 474.529 309.588 475.584V475.584Z" fill="#B16668"/>
<path d="M304.455 445.665C304.506 446.223 304.447 446.787 304.28 447.323C304.113 447.858 303.842 448.356 303.482 448.786C303.122 449.217 302.68 449.571 302.182 449.83C301.684 450.089 301.14 450.247 300.581 450.294C299.719 450.386 298.85 450.219 298.085 449.813C297.32 449.408 296.693 448.783 296.285 448.019C295.877 447.255 295.707 446.386 295.796 445.525C295.886 444.663 296.23 443.848 296.786 443.183C297.342 442.519 298.083 442.036 298.916 441.796C299.748 441.556 300.633 441.571 301.457 441.837C302.281 442.104 303.007 442.611 303.541 443.293C304.075 443.975 304.393 444.801 304.455 445.665V445.665Z" fill="#263238"/>
<path d="M332.862 443.869C332.941 444.896 332.611 445.911 331.945 446.696C331.278 447.48 330.329 447.97 329.303 448.058C328.787 448.121 328.263 448.073 327.766 447.916C327.27 447.758 326.814 447.496 326.428 447.146C326.043 446.796 325.737 446.368 325.532 445.889C325.327 445.411 325.228 444.894 325.241 444.373C325.189 443.863 325.239 443.348 325.39 442.858C325.54 442.368 325.786 441.913 326.115 441.52C326.444 441.126 326.848 440.803 327.303 440.568C327.759 440.333 328.257 440.192 328.768 440.153C329.802 440.11 330.811 440.476 331.577 441.171C332.344 441.867 332.805 442.836 332.862 443.869Z" fill="#263238"/>
<path d="M313.241 439.932L316.265 465.317L329.272 459.9L313.241 439.932Z" fill="#F28F8F"/>
<path d="M289.274 434.704L296.833 427.524C297.774 428.571 298.276 429.94 298.235 431.347C298.194 432.755 297.613 434.092 296.613 435.082C296.114 435.555 295.524 435.922 294.88 436.16C294.235 436.398 293.549 436.503 292.862 436.467C292.176 436.432 291.504 436.257 290.887 435.954C290.271 435.651 289.722 435.226 289.274 434.704Z" fill="#263238"/>
<path d="M327.099 425.193L335.476 431.492C335.091 432.061 334.593 432.545 334.013 432.914C333.434 433.283 332.785 433.53 332.106 433.639C331.428 433.748 330.734 433.717 330.068 433.549C329.402 433.38 328.777 433.076 328.233 432.657C327.136 431.787 326.409 430.533 326.199 429.148C325.988 427.763 326.31 426.35 327.099 425.193Z" fill="#263238"/>
<path d="M206.35 194.498C212.389 193.347 218.562 193.071 224.68 193.679C230.526 194.192 236.233 195.75 241.529 198.278C246.611 200.703 251.103 204.207 254.694 208.545C258.48 213.187 260.997 218.732 262 224.638C262.945 229.273 262.945 234.05 262 238.685C261.154 242.719 259.71 246.604 257.717 250.211C255.783 253.722 253.538 257.053 251.009 260.164C248.489 263.313 246.096 266.211 243.86 269.014C241.721 271.652 239.824 274.476 238.191 277.454C236.69 280.098 235.959 283.109 236.081 286.146C236.099 287.559 235.74 288.95 235.041 290.178C234.712 290.758 234.259 291.259 233.715 291.645C233.171 292.031 232.548 292.294 231.892 292.414L217.058 295.217C216.354 295.357 215.628 295.354 214.925 295.208C214.221 295.062 213.554 294.776 212.964 294.366C212.35 294.014 211.83 293.518 211.452 292.919C211.073 292.321 210.846 291.639 210.791 290.933C210.068 286.274 210.304 281.515 211.484 276.95C212.604 272.882 214.244 268.976 216.365 265.329C218.416 261.855 220.766 258.567 223.389 255.503C226.003 252.353 228.365 249.519 230.538 246.747C232.536 244.258 234.267 241.566 235.703 238.716C236.938 236.243 237.325 233.432 236.805 230.717C236.387 228.323 235.391 226.069 233.903 224.148C232.416 222.227 230.482 220.698 228.27 219.694C222.783 217.2 216.619 216.612 210.759 218.024C199.715 220.124 192.629 227.2 189.501 239.251C189.226 240.522 188.736 241.736 188.052 242.842C187.179 243.851 185.948 244.483 184.619 244.606L168.872 247.597C167.784 247.791 166.664 247.578 165.723 246.999C165.228 246.672 164.807 246.246 164.487 245.747C164.167 245.248 163.955 244.687 163.865 244.102C163.184 239.134 163.725 234.075 165.439 229.362C167.222 223.92 169.952 218.834 173.502 214.34C177.482 209.418 182.224 205.165 187.548 201.742C193.286 198.13 199.672 195.669 206.35 194.498V194.498ZM235.104 303.941C236.505 303.698 237.944 304.01 239.12 304.809C240.295 305.608 241.114 306.832 241.403 308.224L244.553 325.42C244.696 326.109 244.695 326.82 244.549 327.509C244.402 328.198 244.114 328.848 243.702 329.419C243.315 330.005 242.815 330.508 242.231 330.897C241.647 331.287 240.991 331.555 240.301 331.687L223.515 334.836C222.82 334.981 222.104 334.98 221.41 334.833C220.716 334.687 220.06 334.399 219.483 333.986C218.897 333.599 218.395 333.099 218.006 332.515C217.616 331.931 217.347 331.274 217.216 330.585L214.066 313.389C213.935 312.697 213.945 311.986 214.097 311.298C214.248 310.611 214.538 309.961 214.948 309.389C215.325 308.794 215.823 308.285 216.409 307.895C216.994 307.504 217.656 307.241 218.349 307.122L235.104 303.941Z" fill="#BA68C8"/>
<path d="M366.404 265.455C370.118 267.514 373.513 270.103 376.482 273.139C379.368 275.985 381.706 279.337 383.379 283.028C384.984 286.559 385.811 290.394 385.804 294.272C385.8 298.406 384.714 302.467 382.655 306.051C381.112 308.923 379.026 311.469 376.513 313.546C374.262 315.294 371.769 316.705 369.112 317.735C366.53 318.744 363.863 319.524 361.144 320.066L353.46 321.577C351.154 322.02 348.897 322.685 346.72 323.561C344.76 324.289 343.046 325.555 341.775 327.215C341.156 327.977 340.339 328.555 339.413 328.884C338.978 329.047 338.513 329.112 338.05 329.073C337.587 329.035 337.138 328.895 336.736 328.664L327.634 323.561C326.749 323.077 326.092 322.262 325.808 321.294C325.653 320.834 325.606 320.345 325.672 319.864C325.738 319.383 325.913 318.924 326.186 318.522C327.863 315.738 330.092 313.326 332.736 311.436C335.133 309.762 337.737 308.407 340.484 307.405C343.118 306.468 345.825 305.751 348.578 305.263C351.318 304.791 353.869 304.318 356.263 303.815C358.423 303.363 360.533 302.699 362.561 301.83C364.312 301.058 365.77 299.744 366.719 298.083C367.546 296.621 368.006 294.981 368.061 293.303C368.116 291.624 367.764 289.958 367.034 288.445C365.235 284.695 362.229 281.656 358.499 279.816C355.285 277.959 351.577 277.138 347.88 277.465C344.183 277.792 340.676 279.251 337.838 281.643C337.136 282.213 336.336 282.651 335.476 282.934C334.575 283.084 333.65 282.881 332.894 282.367L323.194 276.95C322.507 276.564 321.99 275.935 321.745 275.186C321.622 274.795 321.584 274.382 321.633 273.975C321.682 273.568 321.817 273.176 322.028 272.824C323.867 269.897 326.384 267.455 329.366 265.707C332.762 263.658 336.494 262.229 340.389 261.486C344.654 260.65 349.025 260.512 353.334 261.077C357.931 261.682 362.369 263.169 366.404 265.455V265.455ZM333.209 336.159C333.636 336.396 334.013 336.716 334.315 337.1C334.618 337.484 334.842 337.924 334.972 338.395C335.112 338.86 335.156 339.347 335.102 339.829C335.048 340.311 334.896 340.776 334.657 341.198L328.768 351.749C328.29 352.607 327.492 353.242 326.548 353.513C325.603 353.785 324.59 353.671 323.729 353.198L313.43 347.434C312.997 347.209 312.617 346.893 312.318 346.507C312.019 346.12 311.808 345.674 311.698 345.198C311.548 344.737 311.496 344.249 311.545 343.767C311.594 343.284 311.743 342.817 311.982 342.395L317.871 331.844C318.11 331.422 318.431 331.051 318.815 330.753C319.199 330.456 319.638 330.238 320.107 330.112C320.57 329.965 321.059 329.917 321.542 329.972C322.025 330.026 322.491 330.181 322.91 330.427L333.209 336.159Z" fill="#BA68C8"/>
<g opacity="0.2">
<path opacity="0.2" d="M366.404 265.455C370.118 267.514 373.513 270.103 376.482 273.139C379.368 275.985 381.706 279.337 383.379 283.028C384.984 286.559 385.811 290.394 385.804 294.272C385.8 298.406 384.714 302.467 382.655 306.051C381.112 308.923 379.026 311.469 376.513 313.546C374.262 315.294 371.769 316.705 369.112 317.735C366.53 318.744 363.863 319.524 361.144 320.066L353.46 321.577C351.154 322.02 348.897 322.685 346.72 323.561C344.76 324.289 343.046 325.555 341.775 327.215C341.156 327.977 340.339 328.555 339.413 328.884C338.978 329.047 338.513 329.112 338.05 329.073C337.587 329.035 337.138 328.895 336.736 328.664L327.634 323.561C326.749 323.077 326.092 322.262 325.808 321.294C325.653 320.834 325.606 320.345 325.672 319.864C325.738 319.383 325.913 318.924 326.186 318.522C327.863 315.738 330.092 313.326 332.736 311.436C335.133 309.762 337.737 308.407 340.484 307.405C343.118 306.468 345.825 305.751 348.578 305.263C351.318 304.791 353.869 304.318 356.263 303.815C358.423 303.363 360.533 302.699 362.561 301.83C364.312 301.058 365.77 299.744 366.719 298.083C367.546 296.621 368.006 294.981 368.061 293.303C368.116 291.624 367.764 289.958 367.034 288.445C365.235 284.695 362.229 281.656 358.499 279.816C355.285 277.959 351.577 277.138 347.88 277.465C344.183 277.792 340.676 279.251 337.838 281.643C337.136 282.213 336.336 282.651 335.476 282.934C334.575 283.084 333.65 282.881 332.894 282.367L323.194 276.95C322.507 276.564 321.99 275.935 321.745 275.186C321.622 274.795 321.584 274.382 321.633 273.975C321.682 273.568 321.817 273.176 322.028 272.824C323.867 269.897 326.384 267.455 329.366 265.707C332.762 263.658 336.494 262.229 340.389 261.486C344.654 260.65 349.025 260.512 353.334 261.077C357.931 261.682 362.369 263.169 366.404 265.455V265.455ZM333.209 336.159C333.636 336.396 334.013 336.716 334.315 337.1C334.618 337.484 334.842 337.924 334.972 338.395C335.112 338.86 335.156 339.347 335.102 339.829C335.048 340.311 334.896 340.776 334.657 341.198L328.768 351.749C328.29 352.607 327.492 353.242 326.548 353.513C325.603 353.785 324.59 353.671 323.729 353.198L313.43 347.434C312.997 347.209 312.617 346.893 312.318 346.507C312.019 346.12 311.808 345.674 311.698 345.198C311.548 344.737 311.496 344.249 311.545 343.767C311.594 343.284 311.743 342.817 311.982 342.395L317.871 331.844C318.11 331.422 318.431 331.051 318.815 330.753C319.199 330.456 319.638 330.238 320.107 330.112C320.57 329.965 321.059 329.917 321.542 329.972C322.025 330.026 322.491 330.181 322.91 330.427L333.209 336.159Z" fill="black"/>
</g>
<path d="M144.559 381.101C144.978 380.705 145.473 380.397 146.014 380.197C146.555 379.997 147.132 379.908 147.708 379.936C148.299 379.944 148.882 380.071 149.423 380.309C149.964 380.547 150.452 380.892 150.857 381.322L160.558 391.841C160.957 392.27 161.267 392.774 161.47 393.323C161.674 393.873 161.767 394.457 161.743 395.043C161.72 395.628 161.581 396.203 161.334 396.735C161.087 397.266 160.738 397.744 160.306 398.14L150.039 407.588C149.609 407.987 149.106 408.297 148.556 408.501C148.007 408.704 147.422 408.797 146.837 408.774C146.251 408.75 145.676 408.611 145.144 408.364C144.613 408.118 144.136 407.768 143.74 407.336L134.039 396.817C133.636 396.39 133.323 395.887 133.117 395.337C132.911 394.787 132.817 394.201 132.841 393.615C132.864 393.028 133.004 392.452 133.254 391.92C133.503 391.388 133.856 390.912 134.291 390.518L144.559 381.101ZM77.1609 317.641C80.8437 314.199 85.0013 311.303 89.5067 309.043C93.7849 306.88 98.4127 305.494 103.175 304.948C107.747 304.444 112.374 304.916 116.749 306.334C121.398 307.921 125.554 310.688 128.811 314.365C131.537 317.134 133.679 320.422 135.11 324.034C136.265 327.202 136.945 330.524 137.126 333.892C137.306 337.17 137.2 340.458 136.811 343.718C136.402 346.867 136.024 350.017 135.677 352.946C135.335 355.703 135.241 358.486 135.394 361.26C135.498 363.754 136.306 366.166 137.724 368.22C138.335 369.162 138.683 370.249 138.732 371.37C138.759 371.922 138.66 372.473 138.442 372.98C138.224 373.488 137.892 373.939 137.472 374.299L128.402 382.708C127.542 383.487 126.413 383.905 125.253 383.873C124.677 383.894 124.104 383.776 123.584 383.53C123.063 383.283 122.609 382.915 122.261 382.456C119.741 379.526 117.834 376.12 116.655 372.44C115.668 369.135 115.118 365.716 115.017 362.268C114.919 358.94 115.108 355.611 115.584 352.316C116.056 349.166 116.434 346.017 116.749 343.182C117.031 340.576 117.031 337.947 116.749 335.34C116.544 333.095 115.603 330.98 114.072 329.325C112.741 327.849 111.07 326.72 109.204 326.034C107.339 325.348 105.334 325.126 103.364 325.388C98.5045 326.017 93.9879 328.231 90.5145 331.687C83.7537 337.986 81.8956 345.975 84.94 355.654C85.3135 356.662 85.5054 357.728 85.5069 358.803C85.4289 359.334 85.2469 359.843 84.9712 360.302C84.6955 360.762 84.3317 361.162 83.9007 361.48L74.232 370.425C73.5563 371.077 72.6518 371.439 71.7124 371.433C71.2314 371.425 70.7576 371.314 70.323 371.107C69.8885 370.901 69.5031 370.604 69.1929 370.236C66.5156 367.138 64.6441 363.428 63.7444 359.433C62.6758 354.863 62.4305 350.138 63.02 345.481C63.6668 340.377 65.1344 335.41 67.3662 330.774C69.7433 325.799 73.0707 321.337 77.1609 317.641V317.641Z" fill="#BA68C8"/>
<g opacity="0.6">
<path opacity="0.6" d="M144.559 381.101C144.978 380.705 145.473 380.397 146.014 380.197C146.555 379.997 147.132 379.908 147.708 379.936C148.299 379.944 148.882 380.071 149.423 380.309C149.964 380.547 150.452 380.892 150.857 381.322L160.558 391.841C160.957 392.27 161.267 392.774 161.47 393.323C161.674 393.873 161.767 394.457 161.743 395.043C161.72 395.628 161.581 396.203 161.334 396.735C161.087 397.266 160.738 397.744 160.306 398.14L150.039 407.588C149.609 407.987 149.106 408.297 148.556 408.501C148.007 408.704 147.422 408.797 146.837 408.774C146.251 408.75 145.676 408.611 145.144 408.364C144.613 408.118 144.136 407.768 143.74 407.336L134.039 396.817C133.636 396.39 133.323 395.887 133.117 395.337C132.911 394.787 132.817 394.201 132.841 393.615C132.864 393.028 133.004 392.452 133.254 391.92C133.503 391.388 133.856 390.912 134.291 390.518L144.559 381.101ZM77.1609 317.641C80.8437 314.199 85.0013 311.303 89.5067 309.043C93.7849 306.88 98.4127 305.494 103.175 304.948C107.747 304.444 112.374 304.916 116.749 306.334C121.398 307.921 125.554 310.688 128.811 314.365C131.537 317.134 133.679 320.422 135.11 324.034C136.265 327.202 136.945 330.524 137.126 333.892C137.306 337.17 137.2 340.458 136.811 343.718C136.402 346.867 136.024 350.017 135.677 352.946C135.335 355.703 135.241 358.486 135.394 361.26C135.498 363.754 136.306 366.166 137.724 368.22C138.335 369.162 138.683 370.249 138.732 371.37C138.759 371.922 138.66 372.473 138.442 372.98C138.224 373.488 137.892 373.939 137.472 374.299L128.402 382.708C127.542 383.487 126.413 383.905 125.253 383.873C124.677 383.894 124.104 383.776 123.584 383.53C123.063 383.283 122.609 382.915 122.261 382.456C119.741 379.526 117.834 376.12 116.655 372.44C115.668 369.135 115.118 365.716 115.017 362.268C114.919 358.94 115.108 355.611 115.584 352.316C116.056 349.166 116.434 346.017 116.749 343.182C117.031 340.576 117.031 337.947 116.749 335.34C116.544 333.095 115.603 330.98 114.072 329.325C112.741 327.849 111.07 326.72 109.204 326.034C107.339 325.348 105.334 325.126 103.364 325.388C98.5045 326.017 93.9879 328.231 90.5145 331.687C83.7537 337.986 81.8956 345.975 84.94 355.654C85.3135 356.662 85.5054 357.728 85.5069 358.803C85.4289 359.334 85.2469 359.843 84.9712 360.302C84.6955 360.762 84.3317 361.162 83.9007 361.48L74.232 370.425C73.5563 371.077 72.6518 371.439 71.7124 371.433C71.2314 371.425 70.7576 371.314 70.323 371.107C69.8885 370.901 69.5031 370.604 69.1929 370.236C66.5156 367.138 64.6441 363.428 63.7444 359.433C62.6758 354.863 62.4305 350.138 63.02 345.481C63.6668 340.377 65.1344 335.41 67.3662 330.774C69.7433 325.799 73.0707 321.337 77.1609 317.641V317.641Z" fill="white"/>
</g>
<path d="M785.875 600.836C776.899 595.703 739.106 573.846 726.256 566.413C723.705 564.965 722.099 564.02 721.973 563.925C715.584 560.364 708.119 559.245 700.966 560.776C694.827 562.022 688.947 564.312 683.582 567.547C682.7 568.051 681.818 568.649 680.968 569.216C666.449 578.381 653.977 592.805 643.584 612.647C633.001 631.974 627.324 653.602 627.05 675.635C627.05 696.505 632.614 711.15 643.741 719.57C644.868 720.409 646.046 721.177 647.269 721.869C657.693 727.789 709.974 758.087 711.139 758.748H711.423C710.136 758.044 708.905 757.243 707.738 756.355C696.589 747.956 691.025 733.322 691.046 712.452C691.32 690.419 696.998 668.79 707.58 649.463C718.561 628.467 731.883 613.424 747.546 604.332C762.454 595.724 775.324 594.601 786.158 600.962L785.875 600.836Z" fill="#BA68C8"/>
<path opacity="0.4" d="M786.158 601.025C775.324 594.727 762.454 595.839 747.546 604.364C732.996 612.762 720.451 626.41 709.911 645.306L645.915 608.238C655.804 590.569 667.488 577.562 680.936 569.09C681.786 568.555 682.668 567.925 683.55 567.421C688.91 564.182 694.793 561.901 700.935 560.681C708.087 559.132 715.558 560.253 721.942 563.831L726.225 566.319C739.074 573.72 776.867 595.577 785.843 600.71L786.158 601.025Z" fill="black"/>
<path opacity="0.3" d="M711.423 758.654H711.139C709.974 757.993 657.599 727.695 647.269 721.774C646.046 721.082 644.868 720.314 643.741 719.475C632.614 711.077 627.05 696.442 627.05 675.572C627.316 653.538 632.994 631.908 643.584 612.584C644.34 611.104 645.127 609.655 645.946 608.269L709.911 645.212C709.123 646.598 708.336 648.046 707.58 649.495C696.998 668.822 691.32 690.451 691.046 712.483C691.046 733.354 696.61 747.988 707.738 756.386C708.909 757.232 710.14 757.99 711.423 758.654V758.654Z" fill="black"/>
<path d="M757.971 60.396C789.024 42.4443 815.458 34.8122 837.273 37.4997C846.152 38.5603 854.723 41.4102 862.469 45.8771C862.252 45.7628 862.042 45.6366 861.839 45.4992C854.343 41.279 809.181 15.2333 798.85 9.15489C790.97 4.54932 782.219 1.63213 773.151 0.588466C751.315 -2.07804 724.871 5.54356 693.817 23.4533C645.526 51.3151 606.683 92.2576 577.289 146.281C547.894 200.304 533.354 255.45 533.669 311.72L597.634 348.662C597.193 292.351 611.733 237.194 641.254 183.192C670.774 129.19 709.68 88.2578 757.971 60.396Z" fill="#BA68C8"/>
<path opacity="0.2" d="M861.965 45.5307C854.332 41.2793 845.946 38.5518 837.273 37.4996C815.479 34.8121 789.045 42.4442 757.971 60.3959C709.68 88.2368 670.837 129.179 641.442 183.223C640.214 185.459 639.017 187.727 637.852 189.963L573.73 152.957C574.895 150.721 576.092 148.454 577.32 146.218C606.841 92.2366 645.684 51.2941 693.849 23.3902C724.944 5.45955 751.389 -2.16205 773.183 0.525459C782.252 1.57972 791.004 4.50761 798.882 9.12337C809.307 15.2647 854.469 41.3419 861.965 45.5307Z" fill="black"/>
<path opacity="0.3" d="M637.695 189.9C610.589 241.74 597.245 294.639 597.665 348.599L533.701 311.657C533.302 257.676 546.645 204.776 573.73 152.957L637.695 189.9Z" fill="black"/>
<path d="M801.433 165.083C789.822 158.91 774.316 161.324 754.916 172.326C754.261 183.869 751.883 195.249 747.861 206.088C743.011 219.148 728.902 246.086 705.533 286.902C681.325 329.104 663.814 369.407 653.001 407.808C642.276 445.723 636.829 484.935 636.813 524.337L637.128 543.958L680.779 569.153L701.124 580.901L700.778 561.248V560.996C700.847 521.722 706.293 482.642 716.966 444.846C727.779 406.444 745.3 366.152 769.529 323.971C792.877 283.154 806.976 256.206 811.826 243.125C816.669 230.194 819.144 216.496 819.133 202.687C819.133 183.895 813.233 171.361 801.433 165.083Z" fill="#BA68C8"/>
<path opacity="0.3" d="M805.559 257.266C798.336 272.299 786.326 294.492 769.529 323.845C745.279 366.047 727.758 406.349 716.966 444.751C706.282 482.578 700.835 521.69 700.778 560.996V561.5L701.124 581.153L680.779 569.437L637.128 544.241L636.813 524.589C636.831 485.187 642.278 445.975 653.001 408.06C663.814 369.658 681.325 329.356 705.533 287.154C722.33 257.76 734.361 235.577 741.626 220.607L805.559 257.266Z" fill="black"/>
<path opacity="0.4" d="M819.133 202.687C819.139 216.451 816.675 230.105 811.858 242.999C810.503 246.684 808.393 251.44 805.559 257.266L741.626 220.355C744.418 214.518 746.518 209.762 747.924 206.088C751.946 195.249 754.324 183.869 754.979 172.326C774.379 161.324 789.885 158.91 801.496 165.083C813.107 171.256 818.986 183.79 819.133 202.687Z" fill="black"/>
<path d="M684.243 298.587L597.665 348.599C597.225 292.288 611.764 237.131 641.285 183.129C670.805 129.127 709.648 88.1843 757.813 60.3015C788.867 42.3498 815.301 34.7177 837.116 37.4052C858.931 40.0927 876.389 52.05 889.491 73.2771C902.613 94.5042 909.175 120.98 909.175 152.705C909.045 171.124 906.933 189.475 902.876 207.442C897.968 228.935 891.343 249.998 883.066 270.431C877.775 283.784 865.104 308.434 845.052 344.379C825.883 378.645 813.873 401.961 809.023 414.328C803.639 429.007 799.643 444.159 797.087 459.585C793.274 482.641 791.168 505.947 790.788 529.313L701.25 581.027L700.903 561.374C700.922 521.972 706.369 482.761 717.091 444.846C727.905 406.444 745.426 366.152 769.655 323.971C793.003 283.154 807.102 256.206 811.952 243.125C816.752 230.186 819.185 216.488 819.133 202.687C819.133 183.79 813.243 171.256 801.464 165.083C789.686 158.91 773.875 161.492 754.034 172.83C733.752 184.546 717.112 202.12 704.116 225.552C691.405 247.817 684.567 272.95 684.243 298.587V298.587Z" fill="#BA68C8"/>
<path d="M747.389 604.553C763.451 595.251 777.161 594.674 788.52 602.82C799.879 610.967 805.559 625.465 805.559 646.314C805.215 668.467 799.429 690.196 788.709 709.586C777.497 730.897 763.944 746.14 748.05 755.315C732.156 764.491 718.656 764.869 707.549 756.449C696.421 748.051 690.857 733.406 690.857 712.515C691.131 690.482 696.809 668.853 707.391 649.526C718.414 628.572 731.747 613.581 747.389 604.553Z" fill="#BA68C8"/>
</svg>
