<svg width="680" height="664" viewBox="0 0 680 664" fill="none" xmlns="http://www.w3.org/2000/svg">
<path fill-rule="evenodd" clip-rule="evenodd" d="M157.68 503.29C148.912 484 155.324 474.546 172.598 445.93C179.795 433.922 198.639 412.971 208.584 403.901C283.305 336.066 461.274 332.744 523.825 474.546C528.797 486.044 531.153 500.48 519.376 504.695C493.989 514.021 502.102 490.26 465.461 442.609C443.87 414.504 398.854 395.725 359.073 391.892C286.838 384.994 230.438 414.121 197.592 468.542C184.375 490.387 187.778 513.254 157.68 503.29ZM424.502 203.717C442.692 198.863 460.227 211.127 463.891 225.563C469.125 246.003 456.563 262.354 440.467 265.548C395.19 274.491 384.983 214.576 424.502 203.717ZM240.645 204.101C281.342 191.837 297.83 254.051 260.143 264.909C216.567 277.429 196.676 217.387 240.645 204.101ZM342.977 663.999C454.731 663.999 538.874 615.837 603.387 543.02C694.073 440.821 703.364 285.605 635.971 166.926C627.465 151.979 620.399 143.164 610.585 130.134C586.899 98.4519 543.454 61.5323 508.383 43.0086C268.649 -83.5911 0.779297 87.21 0.648438 329.934C0.648438 421.914 32.1856 490.387 88.3243 555.795L109.131 576.363C129.283 595.781 171.289 620.82 197.854 633.467C240.776 654.034 289.848 664.127 342.977 663.999Z" fill="#B787BF"/>
</svg>
